<svg xmlns="http://www.w3.org/2000/svg" viewBox="0 0 1802 1373" width="1802" height="1373"><defs><style type="text/css">@import url('https://fonts.googleapis.com/css?family=Roboto+Mono:400|Roboto:400,&amp;subset=cyrillic,cyrillic-ext,greek,greek-ext,latin-ext')</style></defs><rect x="0" y="0" width="1802" height="1373" fill="#ffffff"/><text x="901" y="109" text-anchor="middle" font-size="64px" font-family="Roboto,sans-serif" fill="#52565f">Estacionamiento CJM</text><text x="1757" y="1314" text-anchor="end" font-size="14px" font-family="Roboto,sans-serif" color="#52565f">28 July 2021</text><g transform="translate(45,213)"><svg><g><rect x="0" y="0" width="1712" height="1067" fill="#F0F4F7"/><g transform="translate(4, 0)"><g transform="translate(0, 0)"><rect x="0" y="0" width="180" height="66" fill="#8C9BAA"/><g transform="translate(1288, 70)"><rect x="0" y="0" width="416" height="210" fill="#FFFFFF" opacity="1" rx="0"/><g><g><line y1="26.4" y2="26.4" x1="0" x2="416" stroke="#f8f9fa" stroke-width="2"/><line y1="45.8" y2="45.8" x1="0" x2="416" stroke="#f8f9fa" stroke-width="2"/><line y1="65.19999999999999" y2="65.19999999999999" x1="0" x2="416" stroke="#f8f9fa" stroke-width="2"/><line y1="84.6" y2="84.6" x1="0" x2="416" stroke="#f8f9fa" stroke-width="2"/><line y1="104" y2="104" x1="0" x2="416" stroke="#f8f9fa" stroke-width="2"/><line y1="123.39999999999999" y2="123.39999999999999" x1="0" x2="416" stroke="#f8f9fa" stroke-width="2"/><line y1="142.79999999999998" y2="142.79999999999998" x1="0" x2="416" stroke="#f8f9fa" stroke-width="2"/><line y1="162.2" y2="162.2" x1="0" x2="416" stroke="#f8f9fa" stroke-width="2"/><line y1="181.6" y2="181.6" x1="0" x2="416" stroke="#f8f9fa" stroke-width="2"/></g><g transform="translate(192, 11.399999999999999)"><svg fill="none" viewBox="0 0 33 32" xmlns="http://www.w3.org/2000/svg" width="32" height="32"><rect x="1" y="1" width="30" height="30" rx="15" fill="#FFD663"/><path d="M13.42 7.855c.767 2.862-1.845 5.67-4.553 8.122-3.57-.769-7.237-1.895-8.004-4.757C.454 9.695.856 7.77 3.139 7.159c2.283-.612 3.715 1.305 3.715 1.305s.28-2.376 2.564-2.987c2.283-.612 3.644 1.041 4.002 2.378zM18.726 7.855c-.767 2.862 1.845 5.67 4.553 8.122 3.57-.769 7.237-1.895 8.003-4.757.41-1.525.007-3.45-2.276-4.061-2.283-.612-3.714 1.305-3.714 1.305s-.281-2.376-2.565-2.987c-2.283-.612-3.643 1.041-4.002 2.378z" fill="#FF759B"/><circle cx="7.5" cy="19.5" r="2.5" fill="#FF759B" fill-opacity=".2"/><circle cx="24.5" cy="19.5" r="2.5" fill="#FF759B" fill-opacity=".2"/><path d="M16 24a4 4 0 004-4v-4h-8v4a4 4 0 004 4z" fill="#810024"/><path fill-rule="evenodd" clip-rule="evenodd" d="M12.535 22A3.999 3.999 0 0116 20c1.48 0 2.773.804 3.465 2A3.998 3.998 0 0116 24a3.999 3.999 0 01-3.465-2z" fill="#FF759B"/><path d="M13 16h6v1a1 1 0 01-1 1h-4a1 1 0 01-1-1v-1z" fill="#fff"/><path fill-rule="evenodd" clip-rule="evenodd" d="M1.074 14.5C1.025 14.993 1 15.494 1 16c0 8.284 6.716 15 15 15 8.284 0 15-6.716 15-15 0-.506-.025-1.007-.074-1.5C30.173 22.08 23.778 28 16 28 8.222 28 1.827 22.08 1.074 14.5z" fill="#FFD04C"/></svg></g><g transform="translate(0, 45.4)"><g transform="translate(0, 0)"><text x="195.3466796875" y="17" font-size="12" font-variant="" font-family="Roboto,sans-serif" xml:space="preserve">Love</text></g></g></g></g><g transform="translate(1012, 70)"><rect x="0" y="0" width="272" height="210" fill="#FFFFFF" opacity="1" rx="0"/><g><g><line y1="26.4" y2="26.4" x1="0" x2="272" stroke="#f8f9fa" stroke-width="2"/><line y1="45.8" y2="45.8" x1="0" x2="272" stroke="#f8f9fa" stroke-width="2"/><line y1="65.19999999999999" y2="65.19999999999999" x1="0" x2="272" stroke="#f8f9fa" stroke-width="2"/><line y1="84.6" y2="84.6" x1="0" x2="272" stroke="#f8f9fa" stroke-width="2"/><line y1="104" y2="104" x1="0" x2="272" stroke="#f8f9fa" stroke-width="2"/><line y1="123.39999999999999" y2="123.39999999999999" x1="0" x2="272" stroke="#f8f9fa" stroke-width="2"/><line y1="142.79999999999998" y2="142.79999999999998" x1="0" x2="272" stroke="#f8f9fa" stroke-width="2"/><line y1="162.2" y2="162.2" x1="0" x2="272" stroke="#f8f9fa" stroke-width="2"/><line y1="181.6" y2="181.6" x1="0" x2="272" stroke="#f8f9fa" stroke-width="2"/></g><path d="M 136 85.6 c 90 0 258 -58.199999999999996 333 -58.199999999999996" fill="none" stroke="#58A8F7" stroke-width="2"/><g transform="translate(120, 69.6)"><svg fill="none" viewBox="0 0 32 32" xmlns="http://www.w3.org/2000/svg" width="32" height="32"><rect x="1" y="1" width="30" height="30" rx="15" fill="#FFD663"/><path fill-rule="evenodd" clip-rule="evenodd" d="M1.074 14.5C1.025 14.993 1 15.494 1 16c0 8.284 6.716 15 15 15 8.284 0 15-6.716 15-15 0-.506-.025-1.007-.074-1.5C30.173 22.08 23.778 28 16 28 8.222 28 1.827 22.08 1.074 14.5z" fill="#FFD04C"/><circle cx="5.5" cy="16.5" r="2.5" fill="#FF759B" fill-opacity=".2"/><circle cx="26.5" cy="16.5" r="2.5" fill="#FF759B" fill-opacity=".2"/><path d="M20.949 20.316a1 1 0 00-1.898-.632l1.898.632zm-8-.632a1 1 0 00-1.898.632l1.898-.632zm6.102 0C18.65 20.89 17.564 22 16 22v2c2.646 0 4.351-1.891 4.949-3.684l-1.898-.632zM16 22c-1.564 0-2.649-1.109-3.051-2.316l-1.898.632C11.65 22.11 13.354 24 16 24v-2z" fill="#52565F"/><circle cx="11" cy="13" r="2" fill="#52565F"/><circle cx="21" cy="13" r="2" fill="#52565F"/></svg></g><g transform="translate(0, 103.6)"><g transform="translate(0, 0)"><text x="115.10546875" y="17" font-size="12" font-variant="" font-family="Roboto,sans-serif" xml:space="preserve">Friendly</text></g></g></g></g><g transform="translate(736, 70)"><rect x="0" y="0" width="272" height="210" fill="#FFFFFF" opacity="1" rx="0"/><g><g><line y1="26.4" y2="26.4" x1="0" x2="272" stroke="#f8f9fa" stroke-width="2"/><line y1="45.8" y2="45.8" x1="0" x2="272" stroke="#f8f9fa" stroke-width="2"/><line y1="65.19999999999999" y2="65.19999999999999" x1="0" x2="272" stroke="#f8f9fa" stroke-width="2"/><line y1="84.6" y2="84.6" x1="0" x2="272" stroke="#f8f9fa" stroke-width="2"/><line y1="104" y2="104" x1="0" x2="272" stroke="#f8f9fa" stroke-width="2"/><line y1="123.39999999999999" y2="123.39999999999999" x1="0" x2="272" stroke="#f8f9fa" stroke-width="2"/><line y1="142.79999999999998" y2="142.79999999999998" x1="0" x2="272" stroke="#f8f9fa" stroke-width="2"/><line y1="162.2" y2="162.2" x1="0" x2="272" stroke="#f8f9fa" stroke-width="2"/><line y1="181.6" y2="181.6" x1="0" x2="272" stroke="#f8f9fa" stroke-width="2"/></g><path d="M 136 66.19999999999999 c 90 0 186 19.400000000000006 261 19.400000000000006" fill="none" stroke="#58A8F7" stroke-width="2"/><g transform="translate(120, 50.19999999999999)"><svg fill="none" viewBox="0 0 32 32" xmlns="http://www.w3.org/2000/svg" width="32" height="32"><rect x="1" y="1" width="30" height="30" rx="15" fill="#FFD663"/><path fill-rule="evenodd" clip-rule="evenodd" d="M1.074 14.5C1.025 14.993 1 15.494 1 16c0 8.284 6.716 15 15 15 8.284 0 15-6.716 15-15 0-.506-.025-1.007-.074-1.5C30.173 22.08 23.778 28 16 28 8.222 28 1.827 22.08 1.074 14.5z" fill="#FFD04C"/><circle cx="5.5" cy="18.5" r="2.5" fill="#FF759B" fill-opacity=".2"/><circle cx="26.5" cy="18.5" r="2.5" fill="#FF759B" fill-opacity=".2"/><path d="M18 23.806c1.358.416 4.46.437 6-2.806M24.72 7.598c-.527-1.49-3.035-1.945-4.017-.927" stroke="#52565F" stroke-width="2" stroke-linecap="round"/><path d="M8.355 19C16 19 14 11 16 11s1 8 8.105 8c4.96 0 5.774-4.262 5.895-7l1-.62V9h-6.532C20 9 19 10 16 10s-4.065-1-8.032-1H1v2.5l1 .5c0 3 1.065 7 6.355 7z" fill="#52565F"/><path d="M9 10l-5 6s.546.686 1 1c.359.249 1 .5 1 .5l5-7s-.333-.352-1-.5c-.381-.085-1 0-1 0zM25 10l-5 6s.546.686 1 1c.359.248 1 .5 1 .5l5-7.5h-2z" fill="#5F646F"/></svg></g><g transform="translate(0, 84.19999999999999)"><g transform="translate(0, 0)"><text x="128.11328125" y="17" font-size="12" font-variant="" font-family="Roboto,sans-serif" xml:space="preserve">OK</text></g></g></g></g><g transform="translate(460, 70)"><rect x="0" y="0" width="272" height="210" fill="#FFFFFF" opacity="1" rx="0"/><g><g><line y1="26.4" y2="26.4" x1="0" x2="272" stroke="#f8f9fa" stroke-width="2"/><line y1="45.8" y2="45.8" x1="0" x2="272" stroke="#f8f9fa" stroke-width="2"/><line y1="65.19999999999999" y2="65.19999999999999" x1="0" x2="272" stroke="#f8f9fa" stroke-width="2"/><line y1="84.6" y2="84.6" x1="0" x2="272" stroke="#f8f9fa" stroke-width="2"/><line y1="104" y2="104" x1="0" x2="272" stroke="#f8f9fa" stroke-width="2"/><line y1="123.39999999999999" y2="123.39999999999999" x1="0" x2="272" stroke="#f8f9fa" stroke-width="2"/><line y1="142.79999999999998" y2="142.79999999999998" x1="0" x2="272" stroke="#f8f9fa" stroke-width="2"/><line y1="162.2" y2="162.2" x1="0" x2="272" stroke="#f8f9fa" stroke-width="2"/><line y1="181.6" y2="181.6" x1="0" x2="272" stroke="#f8f9fa" stroke-width="2"/></g><path d="M 136 85.6 c 90 0 186 -19.400000000000006 261 -19.400000000000006" fill="none" stroke="#58A8F7" stroke-width="2"/><g transform="translate(120, 69.6)"><svg fill="none" viewBox="0 0 32 32" xmlns="http://www.w3.org/2000/svg" width="32" height="32"><rect x="1" y="1" width="30" height="30" rx="15" fill="#FFD663"/><path fill-rule="evenodd" clip-rule="evenodd" d="M1.074 14.5C1.025 14.993 1 15.494 1 16c0 8.284 6.716 15 15 15 8.284 0 15-6.716 15-15 0-.506-.025-1.007-.074-1.5C30.173 22.08 23.778 28 16 28 8.222 28 1.827 22.08 1.074 14.5z" fill="#FFD04C"/><circle cx="5.5" cy="16.5" r="2.5" fill="#FF759B" fill-opacity=".2"/><circle cx="26.5" cy="16.5" r="2.5" fill="#FF759B" fill-opacity=".2"/><path d="M20.949 20.316a1 1 0 00-1.898-.632l1.898.632zm-8-.632a1 1 0 00-1.898.632l1.898-.632zm6.102 0C18.65 20.89 17.564 22 16 22v2c2.646 0 4.351-1.891 4.949-3.684l-1.898-.632zM16 22c-1.564 0-2.649-1.109-3.051-2.316l-1.898.632C11.65 22.11 13.354 24 16 24v-2z" fill="#52565F"/><circle cx="11" cy="13" r="2" fill="#52565F"/><circle cx="21" cy="13" r="2" fill="#52565F"/></svg></g><g transform="translate(0, 103.6)"><g transform="translate(0, 0)"><text x="109.7412109375" y="17" font-size="12" font-variant="" font-family="Roboto,sans-serif" xml:space="preserve">Receptivo</text></g></g></g></g><g transform="translate(184, 70)"><rect x="0" y="0" width="272" height="210" fill="#FFFFFF" opacity="1" rx="0"/><g><g><line y1="26.4" y2="26.4" x1="0" x2="272" stroke="#f8f9fa" stroke-width="2"/><line y1="45.8" y2="45.8" x1="0" x2="272" stroke="#f8f9fa" stroke-width="2"/><line y1="65.19999999999999" y2="65.19999999999999" x1="0" x2="272" stroke="#f8f9fa" stroke-width="2"/><line y1="84.6" y2="84.6" x1="0" x2="272" stroke="#f8f9fa" stroke-width="2"/><line y1="104" y2="104" x1="0" x2="272" stroke="#f8f9fa" stroke-width="2"/><line y1="123.39999999999999" y2="123.39999999999999" x1="0" x2="272" stroke="#f8f9fa" stroke-width="2"/><line y1="142.79999999999998" y2="142.79999999999998" x1="0" x2="272" stroke="#f8f9fa" stroke-width="2"/><line y1="162.2" y2="162.2" x1="0" x2="272" stroke="#f8f9fa" stroke-width="2"/><line y1="181.6" y2="181.6" x1="0" x2="272" stroke="#f8f9fa" stroke-width="2"/></g><path d="M 136 105 c 90 0 186 -19.400000000000006 261 -19.400000000000006" fill="none" stroke="#58A8F7" stroke-width="2"/><g transform="translate(120, 89)"><svg fill="none" viewBox="0 0 32 32" xmlns="http://www.w3.org/2000/svg" width="32" height="32"><rect x="1" y="1" width="30" height="30" rx="15" fill="#FFD663"/><path fill-rule="evenodd" clip-rule="evenodd" d="M1.074 14.5C1.025 14.993 1 15.494 1 16c0 8.284 6.716 15 15 15 8.284 0 15-6.716 15-15 0-.506-.025-1.007-.074-1.5C30.173 22.08 23.778 28 16 28 8.222 28 1.827 22.08 1.074 14.5z" fill="#FFD04C"/><circle cx="11" cy="13" r="2" fill="#52565F"/><circle cx="21" cy="13" r="2" fill="#52565F"/><path d="M11 21h10" stroke="#52565F" stroke-width="2" stroke-linecap="round"/></svg></g><g transform="translate(0, 123)"><g transform="translate(0, 0)"><text x="116.6435546875" y="17" font-size="12" font-variant="" font-family="Roboto,sans-serif" xml:space="preserve">Neutral</text></g></g></g></g><g transform="translate(184, 284)"><rect x="0" y="0" width="272" height="448" fill="#FFFFFF" opacity="1" rx="0"/><rect x="0" width="8" height="448" fill="#0D87FF"/><g transform="translate(48, 16)" opacity="1"><svg width="8" height="8" viewBox="0 0 8 8" fill="#0d87ff" y="4" x="-24"><path d="M0 4L4 0L8 4L4 8L0 4Z" fill="#0d87ff"/></svg><g transform="translate(0, 0)"><text x="0" y="17.333328" fill="#283544" font-size="16" font-variant="" font-family="Roboto,sans-serif" font-weight="400" xml:space="preserve">Buscar en Google</text></g><svg width="8" height="8" viewBox="0 0 8 8" fill="#0d87ff" y="44" x="-24"><path d="M0 4L4 0L8 4L4 8L0 4Z" fill="#0d87ff"/></svg><g transform="translate(0, 40)"><text x="0" y="17.333328" fill="#283544" font-size="16" font-variant="" font-family="Roboto,sans-serif" font-weight="400" xml:space="preserve">Buscar o avisos en Tiendas </text></g><g transform="translate(0, 64)"><text x="0" y="17.333328" fill="#283544" font-size="16" font-variant="" font-family="Roboto,sans-serif" font-weight="400" xml:space="preserve">IOS y Android</text></g><svg width="8" height="8" viewBox="0 0 8 8" fill="#0d87ff" y="108" x="-24"><path d="M0 4L4 0L8 4L4 8L0 4Z" fill="#0d87ff"/></svg><g transform="translate(0, 104)"><text x="0" y="17.333328" fill="#283544" font-size="16" font-variant="" font-family="Roboto,sans-serif" font-weight="400" xml:space="preserve">Recomendaciones de </text></g><g transform="translate(0, 128)"><text x="0" y="17.333328" fill="#283544" font-size="16" font-variant="" font-family="Roboto,sans-serif" font-weight="400" xml:space="preserve">amigos</text></g><svg width="8" height="8" viewBox="0 0 8 8" fill="#0d87ff" y="172" x="-24"><path d="M0 4L4 0L8 4L4 8L0 4Z" fill="#0d87ff"/></svg><g transform="translate(0, 168)"><text x="0" y="17.333328" fill="#283544" font-size="16" font-variant="" font-family="Roboto,sans-serif" font-weight="400" xml:space="preserve">Avisos en Redes Sociales</text></g></g></g><g transform="translate(460, 284)"><rect x="0" y="0" width="272" height="448" fill="#FFFFFF" opacity="1" rx="0"/><rect x="0" width="8" height="448" fill="#0D87FF"/><g transform="translate(48, 16)" opacity="1"><svg width="8" height="8" viewBox="0 0 8 8" fill="#0d87ff" y="4" x="-24"><path d="M0 4L4 0L8 4L4 8L0 4Z" fill="#0d87ff"/></svg><g transform="translate(0, 0)"><text x="0" y="17.333328" fill="#283544" font-size="16" font-variant="" font-family="Roboto,sans-serif" font-weight="400" xml:space="preserve">Compara con otras </text></g><g transform="translate(0, 24)"><text x="0" y="17.333328" fill="#283544" font-size="16" font-variant="" font-family="Roboto,sans-serif" font-weight="400" xml:space="preserve">aplicaciones o con realidad </text></g><g transform="translate(0, 48)"><text x="0" y="17.333328" fill="#283544" font-size="16" font-variant="" font-family="Roboto,sans-serif" font-weight="400" xml:space="preserve">sin app</text></g><svg width="8" height="8" viewBox="0 0 8 8" fill="#0d87ff" y="92" x="-24"><path d="M0 4L4 0L8 4L4 8L0 4Z" fill="#0d87ff"/></svg><g transform="translate(0, 88)"><text x="0" y="17.333328" fill="#283544" font-size="16" font-variant="" font-family="Roboto,sans-serif" font-weight="400" xml:space="preserve">Busca Tutoriales y Reviews</text></g><svg width="8" height="8" viewBox="0 0 8 8" fill="#0d87ff" y="132" x="-24"><path d="M0 4L4 0L8 4L4 8L0 4Z" fill="#0d87ff"/></svg><g transform="translate(0, 128)"><text x="0" y="17.333328" fill="#283544" font-size="16" font-variant="" font-family="Roboto,sans-serif" font-weight="400" xml:space="preserve">Entra al sitio web por </text></g><g transform="translate(0, 152)"><text x="0" y="17.333328" fill="#283544" font-size="16" font-variant="" font-family="Roboto,sans-serif" font-weight="400" xml:space="preserve">informaci贸n de uso, precios </text></g><g transform="translate(0, 176)"><text x="0" y="17.333328" fill="#283544" font-size="16" font-variant="" font-family="Roboto,sans-serif" font-weight="400" xml:space="preserve">y otros</text></g></g></g><g transform="translate(736, 284)"><rect x="0" y="0" width="272" height="448" fill="#FFFFFF" opacity="1" rx="0"/><rect x="0" width="8" height="448" fill="#0D87FF"/><g transform="translate(48, 16)" opacity="1"><svg width="8" height="8" viewBox="0 0 8 8" fill="#0d87ff" y="4" x="-24"><path d="M0 4L4 0L8 4L4 8L0 4Z" fill="#0d87ff"/></svg><g transform="translate(0, 0)"><text x="0" y="17.333328" fill="#283544" font-size="16" font-variant="" font-family="Roboto,sans-serif" font-weight="400" xml:space="preserve">Descargar e Instalar</text></g></g></g><g transform="translate(1012, 284)"><rect x="0" y="0" width="272" height="448" fill="#FFFFFF" opacity="1" rx="0"/><rect x="0" width="8" height="448" fill="#0D87FF"/><g transform="translate(48, 16)" opacity="1"><svg width="8" height="8" viewBox="0 0 8 8" fill="#0d87ff" y="4" x="-24"><path d="M0 4L4 0L8 4L4 8L0 4Z" fill="#0d87ff"/></svg><g transform="translate(0, 0)"><text x="0" y="17.333328" fill="#283544" font-size="16" font-variant="" font-family="Roboto,sans-serif" font-weight="400" xml:space="preserve">Registro</text></g><svg width="8" height="8" viewBox="0 0 8 8" fill="#0d87ff" y="44" x="-24"><path d="M0 4L4 0L8 4L4 8L0 4Z" fill="#0d87ff"/></svg><g transform="translate(0, 40)"><text x="0" y="17.333328" fill="#283544" font-size="16" font-variant="" font-family="Roboto,sans-serif" font-weight="400" xml:space="preserve">Configurar medios de pago</text></g><svg width="8" height="8" viewBox="0 0 8 8" fill="#0d87ff" y="84" x="-24"><path d="M0 4L4 0L8 4L4 8L0 4Z" fill="#0d87ff"/></svg><g transform="translate(0, 80)"><text x="0" y="17.333328" fill="#283544" font-size="16" font-variant="" font-family="Roboto,sans-serif" font-weight="400" xml:space="preserve">Encontrar estacionamiento </text></g><g transform="translate(0, 104)"><text x="0" y="17.333328" fill="#283544" font-size="16" font-variant="" font-family="Roboto,sans-serif" font-weight="400" xml:space="preserve">disponible</text></g><svg width="8" height="8" viewBox="0 0 8 8" fill="#0d87ff" y="148" x="-24"><path d="M0 4L4 0L8 4L4 8L0 4Z" fill="#0d87ff"/></svg><g transform="translate(0, 144)"><text x="0" y="17.333328" fill="#283544" font-size="16" font-variant="" font-family="Roboto,sans-serif" font-weight="400" xml:space="preserve">Info en tiempo real</text></g><svg width="8" height="8" viewBox="0 0 8 8" fill="#0d87ff" y="188" x="-24"><path d="M0 4L4 0L8 4L4 8L0 4Z" fill="#0d87ff"/></svg><g transform="translate(0, 184)"><text x="0" y="17.333328" fill="#283544" font-size="16" font-variant="" font-family="Roboto,sans-serif" font-weight="400" xml:space="preserve">Encontrar mi auto</text></g><svg width="8" height="8" viewBox="0 0 8 8" fill="#0d87ff" y="228" x="-24"><path d="M0 4L4 0L8 4L4 8L0 4Z" fill="#0d87ff"/></svg><g transform="translate(0, 224)"><text x="0" y="17.333328" fill="#283544" font-size="16" font-variant="" font-family="Roboto,sans-serif" font-weight="400" xml:space="preserve">Salir del Estacionamiento</text></g><svg width="8" height="8" viewBox="0 0 8 8" fill="#0d87ff" y="268" x="-24"><path d="M0 4L4 0L8 4L4 8L0 4Z" fill="#0d87ff"/></svg><g transform="translate(0, 264)"><text x="0" y="17.333328" fill="#283544" font-size="16" font-variant="" font-family="Roboto,sans-serif" font-weight="400" xml:space="preserve">Pago de Servicios de </text></g><g transform="translate(0, 288)"><text x="0" y="17.333328" fill="#283544" font-size="16" font-variant="" font-family="Roboto,sans-serif" font-weight="400" xml:space="preserve">estacionamientos</text></g><svg width="8" height="8" viewBox="0 0 8 8" fill="#0d87ff" y="332" x="-24"><path d="M0 4L4 0L8 4L4 8L0 4Z" fill="#0d87ff"/></svg><g transform="translate(0, 328)"><text x="0" y="17.333328" fill="#283544" font-size="16" font-variant="" font-family="Roboto,sans-serif" font-weight="400" xml:space="preserve">Reclamos y soluciones</text></g><svg width="8" height="8" viewBox="0 0 8 8" fill="#0d87ff" y="372" x="-24"><path d="M0 4L4 0L8 4L4 8L0 4Z" fill="#0d87ff"/></svg><g transform="translate(0, 368)"><text x="0" y="17.333328" fill="#283544" font-size="16" font-variant="" font-family="Roboto,sans-serif" font-weight="400" xml:space="preserve">Revisi贸n de Estado de </text></g><g transform="translate(0, 392)"><text x="0" y="17.333328" fill="#283544" font-size="16" font-variant="" font-family="Roboto,sans-serif" font-weight="400" xml:space="preserve">Cuenta e Historiales</text></g></g></g><g transform="translate(1288, 284)"><rect x="0" y="0" width="416" height="448" fill="#FFFFFF" opacity="1" rx="0"/><rect x="0" width="8" height="448" fill="#0D87FF"/><g transform="translate(48, 16)" opacity="1"><svg width="8" height="8" viewBox="0 0 8 8" fill="#0d87ff" y="4" x="-24"><path d="M0 4L4 0L8 4L4 8L0 4Z" fill="#0d87ff"/></svg><g transform="translate(0, 0)"><text x="0" y="17.333328" fill="#283544" font-size="16" font-variant="" font-family="Roboto,sans-serif" font-weight="400" xml:space="preserve">Valoraci贸n de App</text></g><svg width="8" height="8" viewBox="0 0 8 8" fill="#0d87ff" y="44" x="-24"><path d="M0 4L4 0L8 4L4 8L0 4Z" fill="#0d87ff"/></svg><g transform="translate(0, 40)"><text x="0" y="17.333328" fill="#283544" font-size="16" font-variant="" font-family="Roboto,sans-serif" font-weight="400" xml:space="preserve">Recomendaci贸n/Like RRSS</text></g></g></g><g transform="translate(184, 736)"><rect x="0" y="0" width="272" height="210" fill="#FFFFFF" opacity="1" rx="0"/><svg viewBox="0 0 272 210" width="272" height="210"><svg width="272" height="210" viewBox="0 0 278 210" fill="none" xmlns="http://www.w3.org/2000/svg" class="cjm-channels_chart"><path d="m0 105 l56 0 c4.5 0 8 -3.4 8.5 -8 c4 -36 34.5 -64 71.5 -64 c36 0 66.5 27 71.5 62 m-142 20 c5 35 35 62 71 62 c37 0 67.5 -28 71.5 -64 c0.5 -4.5 4 -8 8.5 -8 L272 105 m-24 -25 l24 25 l-24 25" fill="none" stroke="#58a8f7" stroke-width="8px"/></svg><g transform="translate(63, 31)"><circle cx="20" cy="20" r="21" stroke="#58a8f7" stroke-width="2" fill="#ffffff"/><g transform="translate(4, 4)"><svg fill="none" viewBox="0 0 32 32" xmlns="http://www.w3.org/2000/svg" width="32" height="32"><radialGradient id="g61sz41z2q97g" cx="0" cy="0" r="1" gradientUnits="userSpaceOnUse" gradientTransform="translate(1.38204e-06 1.5) rotate(-5.85601) scale(39.2046 8.38546)">
            <stop offset="0.151136" stop-color="#406ADC"/>
            <stop offset="0.467799" stop-color="#6A45BE"/>
            <stop offset="1" stop-color="#6A45BE" stop-opacity="0"/>
        </radialGradient><radialGradient id="g60lai18h22ww" cx="0" cy="0" r="1" gradientUnits="userSpaceOnUse" gradientTransform="translate(11 31) rotate(-65.1363) scale(22.5942)">
            <stop stop-color="#E0E8B7"/>
            <stop offset="0.444662" stop-color="#FB8A2E"/>
            <stop offset="0.71474" stop-color="#E2425C"/>
            <stop offset="1" stop-color="#E2425C" stop-opacity="0"/>
        </radialGradient><radialGradient id="g59hf5hv45qq2" cx="0" cy="0" r="1" gradientUnits="userSpaceOnUse" gradientTransform="translate(16.5 20) rotate(-60.9454) scale(20.5913)">
            <stop stop-color="#B13589"/>
            <stop offset="0.64092" stop-color="#C62F94"/>
            <stop offset="1" stop-color="#8A3AC8"/>
        </radialGradient><rect x="2" y="2" width="28" height="28" rx="6" fill="url(#g59hf5hv45qq2)"/><rect x="2" y="2" width="28" height="28" rx="6" fill="url(#g60lai18h22ww)"/><rect x="2" y="2" width="28" height="28" rx="6" fill="url(#g61sz41z2q97g)"/><path d="M23 10.5a1.5 1.5 0 11-3 0 1.5 1.5 0 013 0z" fill="#fff"/><path fill-rule="evenodd" clip-rule="evenodd" d="M16 21a5 5 0 100-10 5 5 0 000 10zm0-2a3 3 0 100-6 3 3 0 000 6z" fill="#fff"/><path fill-rule="evenodd" clip-rule="evenodd" d="M6 15.6c0-3.36 0-5.04.654-6.324a6 6 0 012.622-2.622C10.56 6 12.24 6 15.6 6h.8c3.36 0 5.04 0 6.324.654a6 6 0 012.622 2.622C26 10.56 26 12.24 26 15.6v.8c0 3.36 0 5.04-.654 6.324a6 6 0 01-2.622 2.622C21.44 26 19.76 26 16.4 26h-.8c-3.36 0-5.04 0-6.324-.654a6 6 0 01-2.622-2.622C6 21.44 6 19.76 6 16.4v-.8zM15.6 8h.8c1.713 0 2.878.002 3.778.075.877.072 1.325.202 1.638.361a4 4 0 011.748 1.748c.16.313.29.761.36 1.638.074.9.076 2.065.076 3.778v.8c0 1.713-.002 2.878-.075 3.778-.072.877-.202 1.325-.361 1.638a4 4 0 01-1.748 1.748c-.313.16-.761.29-1.638.36-.9.074-2.065.076-3.778.076h-.8c-1.713 0-2.878-.002-3.778-.075-.877-.072-1.325-.202-1.638-.361a4 4 0 01-1.748-1.748c-.16-.313-.29-.761-.36-1.638C8.001 19.278 8 18.113 8 16.4v-.8c0-1.713.002-2.878.075-3.778.072-.877.202-1.325.361-1.638a4 4 0 011.748-1.748c.313-.16.761-.29 1.638-.36.9-.074 2.065-.076 3.778-.076z" fill="#fff"/></svg></g></g><g transform="translate(63, 135)"><circle cx="20" cy="20" r="21" stroke="#58a8f7" stroke-width="2" fill="#ffffff"/><g transform="translate(4, 4)"><svg fill="none" viewBox="0 0 32 32" xmlns="http://www.w3.org/2000/svg" width="32" height="32"><path d="M28.457 30.003c.854 0 1.546-.692 1.546-1.546V3.546c0-.854-.692-1.546-1.546-1.546H3.546C2.692 2 2 2.692 2 3.546v24.911c0 .854.692 1.546 1.546 1.546h24.912z" fill="#3C5A99"/><path d="M21.322 30.003V19.159h3.64l.545-4.226h-4.185v-2.699c0-1.223.34-2.057 2.094-2.057l2.238-.001v-3.78c-.387-.052-1.715-.167-3.261-.167-3.227 0-5.436 1.97-5.436 5.587v3.116h-3.649v4.227h3.65v10.844h4.364z" fill="#fff"/></svg></g></g><g transform="translate(112, 13)"><circle cx="20" cy="20" r="21" stroke="#58a8f7" stroke-width="2" fill="#ffffff"/><g transform="translate(4, 4)"><svg fill="none" viewBox="0 0 32 32" xmlns="http://www.w3.org/2000/svg" width="32" height="32"><path fill-rule="evenodd" clip-rule="evenodd" d="M12.591 3.884A6.969 6.969 0 0116 3c1.237 0 2.4.321 3.409.884l.737-.738a.5.5 0 01.708.708l-.593.592A6.988 6.988 0 0123 10H9a6.988 6.988 0 012.739-5.554l-.593-.592a.5.5 0 01.708-.708l.738.738zM14 7a1 1 0 11-2 0 1 1 0 012 0zm5 1a1 1 0 100-2 1 1 0 000 2z" fill="#87C527"/><path d="M5 12.5a1.5 1.5 0 013 0v6a1.5 1.5 0 01-3 0v-6zM12 24v3.5a1.5 1.5 0 003 0V24h2v3.5a1.5 1.5 0 003 0V24h1a2 2 0 002-2V11H9v11a2 2 0 002 2h1zM24 12.5a1.5 1.5 0 013 0v6a1.5 1.5 0 01-3 0v-6z" fill="#87C527"/></svg></g></g><g transform="translate(112, 153)"><circle cx="20" cy="20" r="21" stroke="#58a8f7" stroke-width="2" fill="#ffffff"/><g transform="translate(4, 4)"><svg fill="none" viewBox="0 0 32 32" xmlns="http://www.w3.org/2000/svg" width="32" height="32"><linearGradient id="g30x822jlff5u" x1="15.9657" y1="10.9802" x2="15.9657" y2="20.9592" gradientUnits="userSpaceOnUse">
<stop stop-color="#86BBE5"/>
<stop offset="1" stop-color="#1072BA"/>
</linearGradient><path d="M16 2.004s8.253-.37 12.628 7.896h-13.33s-2.515-.08-4.664 2.96c-.617 1.276-1.28 2.591-.536 5.182-1.073-1.81-5.695-9.83-5.695-9.83s3.26-5.881 11.598-6.208z" fill="#EF3F36"/><path d="M28.2 22.986s-3.808 7.308-13.175 6.946L21.69 18.43s1.331-2.13-.239-5.505c-.799-1.172-1.613-2.399-4.236-3.052 2.11-.02 11.389 0 11.389 0s3.476 5.755-.405 13.113z" fill="#FCD900"/><path d="M3.86 23.043S-.59 16.105 4.41 8.201c1.154 1.995 6.663 11.502 6.663 11.502s1.188 2.214 4.903 2.544c1.416-.103 2.89-.192 4.773-2.125-1.038 1.83-5.695 9.826-5.695 9.826s-6.744.123-11.196-6.905z" fill="#61BC5B"/><path d="M15.02 30.001l1.876-7.796s2.06-.161 3.788-2.049c-1.072 1.88-5.663 9.845-5.663 9.845z" fill="#5AB055"/><path d="M9.72 16.089c0-3.437 2.797-6.224 6.246-6.224 3.449 0 6.246 2.787 6.246 6.224 0 3.437-2.797 6.224-6.246 6.224-3.449-.004-6.246-2.787-6.246-6.224z" fill="#fff"/><path d="M10.765 16.09c0-2.861 2.327-5.183 5.201-5.183 2.87 0 5.2 2.318 5.2 5.182 0 2.86-2.326 5.182-5.2 5.182-2.87 0-5.2-2.322-5.2-5.182z" fill="url(#g30x822jlff5u)"/><path d="M28.6 9.877l-7.719 2.256s-1.165-1.703-3.669-2.256c2.172-.012 11.389 0 11.389 0z" fill="#EACA05"/><path d="M9.948 17.758c-1.085-1.872-5.545-9.546-5.545-9.546l5.718 5.636s-.586 1.203-.366 2.925l.192.985z" fill="#DF3A32"/></svg></g></g><g transform="translate(161, 31)"><circle cx="20" cy="20" r="21" stroke="#58a8f7" stroke-width="2" fill="#ffffff"/><g transform="translate(4, 4)"><svg fill="none" viewBox="0 0 32 32" xmlns="http://www.w3.org/2000/svg" width="32" height="32"><path d="M30 16c0 7.728-6.265 14-14 14S2 23.728 2 16C2 8.265 8.265 2 16 2s14 6.265 14 14z" fill="#283544"/><path d="M7.086 20.84h1.53v-7.096h-1.53v7.095zm.761-8.026c.473 0 .854-.402.854-.904 0-.515-.38-.91-.854-.91-.466 0-.847.395-.847.91 0 .502.38.904.847.904zM13.958 11.02c-2.586 0-4.207 1.921-4.207 4.993 0 3.073 1.621 4.987 4.207 4.987 2.579 0 4.2-1.914 4.2-4.987 0-3.072-1.621-4.993-4.2-4.993zm0 1.473c1.578 0 2.585 1.365 2.585 3.52 0 2.149-1.007 3.514-2.585 3.514-1.585 0-2.586-1.365-2.586-3.514 0-2.155 1.001-3.52 2.586-3.52zM19.06 18.122c.068 1.78 1.407 2.878 3.446 2.878C24.649 21 26 19.849 26 18.015c0-1.44-.762-2.25-2.56-2.698l-1.02-.254c-1.087-.281-1.535-.656-1.535-1.299 0-.803.675-1.338 1.676-1.338 1.013 0 1.707.542 1.781 1.445h1.51c-.036-1.7-1.326-2.85-3.279-2.85-1.928 0-3.297 1.157-3.297 2.87 0 1.38.773 2.236 2.407 2.644l1.148.295c1.118.288 1.572.69 1.572 1.386 0 .803-.743 1.378-1.811 1.378-1.081 0-1.898-.582-1.996-1.472h-1.535z" fill="#fff"/></svg></g></g><g transform="translate(161, 135)"><circle cx="20" cy="20" r="21" stroke="#58a8f7" stroke-width="2" fill="#ffffff"/><g transform="translate(4, 4)"><svg fill="none" viewBox="0 0 32 32" xmlns="http://www.w3.org/2000/svg" width="32" height="32"><path fill-rule="evenodd" clip-rule="evenodd" d="M18.875 27.54c-1.074.3-2.206.46-3.375.46C8.596 28 3 22.404 3 15.5S8.596 3 15.5 3 28 8.596 28 15.5c0 3.944-1.827 7.462-4.68 9.753.786.992 1.698 1.76 2.695 1.76 1.644 0 2.139-1.323 2.18-1.985H30c0 3.503-2.095 5.851-5.538 5.963-1.214.04-3.247.105-5.587-3.452zm-1.1-1.914c-.66.244-1.414.374-2.275.374C10.329 26 9 21.299 9 15.5S10.33 5 15.5 5 22 9.701 22 15.5c0 2.354-.219 4.526-.825 6.277C20.195 20.054 18.65 18 15.801 18c-2.372 0-4.19.971-4.801 1.457l.753 1.505c.21-.07.738-.208 1.177-.208.549 0 2.494-.177 4.377 3.906.157.34.313.661.468.966z" fill="#B72D2C"/></svg></g></g></svg></g><g transform="translate(460, 736)"><rect x="0" y="0" width="272" height="210" fill="#FFFFFF" opacity="1" rx="0"/><svg viewBox="0 0 272 210" width="272" height="210"><svg width="272" height="210" viewBox="0 0 278 210" fill="none" xmlns="http://www.w3.org/2000/svg" class="cjm-channels_chart"><path d="m0 105 l56 0 c4.5 0 8 -3.4 8.5 -8 c4 -36 34.5 -64 71.5 -64 c36 0 66.5 27 71.5 62 m-142 20 c5 35 35 62 71 62 c37 0 67.5 -28 71.5 -64 c0.5 -4.5 4 -8 8.5 -8 L272 105 m-24 -25 l24 25 l-24 25" fill="none" stroke="#58a8f7" stroke-width="8px"/></svg><g transform="translate(63, 31)"><circle cx="20" cy="20" r="21" stroke="#58a8f7" stroke-width="2" fill="#ffffff"/><g transform="translate(4, 4)"><svg fill="none" viewBox="0 0 32 32" xmlns="http://www.w3.org/2000/svg" width="32" height="32"><radialGradient id="g61sz41z2q97g" cx="0" cy="0" r="1" gradientUnits="userSpaceOnUse" gradientTransform="translate(1.38204e-06 1.5) rotate(-5.85601) scale(39.2046 8.38546)">
            <stop offset="0.151136" stop-color="#406ADC"/>
            <stop offset="0.467799" stop-color="#6A45BE"/>
            <stop offset="1" stop-color="#6A45BE" stop-opacity="0"/>
        </radialGradient><radialGradient id="g60lai18h22ww" cx="0" cy="0" r="1" gradientUnits="userSpaceOnUse" gradientTransform="translate(11 31) rotate(-65.1363) scale(22.5942)">
            <stop stop-color="#E0E8B7"/>
            <stop offset="0.444662" stop-color="#FB8A2E"/>
            <stop offset="0.71474" stop-color="#E2425C"/>
            <stop offset="1" stop-color="#E2425C" stop-opacity="0"/>
        </radialGradient><radialGradient id="g59hf5hv45qq2" cx="0" cy="0" r="1" gradientUnits="userSpaceOnUse" gradientTransform="translate(16.5 20) rotate(-60.9454) scale(20.5913)">
            <stop stop-color="#B13589"/>
            <stop offset="0.64092" stop-color="#C62F94"/>
            <stop offset="1" stop-color="#8A3AC8"/>
        </radialGradient><rect x="2" y="2" width="28" height="28" rx="6" fill="url(#g59hf5hv45qq2)"/><rect x="2" y="2" width="28" height="28" rx="6" fill="url(#g60lai18h22ww)"/><rect x="2" y="2" width="28" height="28" rx="6" fill="url(#g61sz41z2q97g)"/><path d="M23 10.5a1.5 1.5 0 11-3 0 1.5 1.5 0 013 0z" fill="#fff"/><path fill-rule="evenodd" clip-rule="evenodd" d="M16 21a5 5 0 100-10 5 5 0 000 10zm0-2a3 3 0 100-6 3 3 0 000 6z" fill="#fff"/><path fill-rule="evenodd" clip-rule="evenodd" d="M6 15.6c0-3.36 0-5.04.654-6.324a6 6 0 012.622-2.622C10.56 6 12.24 6 15.6 6h.8c3.36 0 5.04 0 6.324.654a6 6 0 012.622 2.622C26 10.56 26 12.24 26 15.6v.8c0 3.36 0 5.04-.654 6.324a6 6 0 01-2.622 2.622C21.44 26 19.76 26 16.4 26h-.8c-3.36 0-5.04 0-6.324-.654a6 6 0 01-2.622-2.622C6 21.44 6 19.76 6 16.4v-.8zM15.6 8h.8c1.713 0 2.878.002 3.778.075.877.072 1.325.202 1.638.361a4 4 0 011.748 1.748c.16.313.29.761.36 1.638.074.9.076 2.065.076 3.778v.8c0 1.713-.002 2.878-.075 3.778-.072.877-.202 1.325-.361 1.638a4 4 0 01-1.748 1.748c-.313.16-.761.29-1.638.36-.9.074-2.065.076-3.778.076h-.8c-1.713 0-2.878-.002-3.778-.075-.877-.072-1.325-.202-1.638-.361a4 4 0 01-1.748-1.748c-.16-.313-.29-.761-.36-1.638C8.001 19.278 8 18.113 8 16.4v-.8c0-1.713.002-2.878.075-3.778.072-.877.202-1.325.361-1.638a4 4 0 011.748-1.748c.313-.16.761-.29 1.638-.36.9-.074 2.065-.076 3.778-.076z" fill="#fff"/></svg></g></g><g transform="translate(63, 135)"><circle cx="20" cy="20" r="21" stroke="#58a8f7" stroke-width="2" fill="#ffffff"/><g transform="translate(4, 4)"><svg fill="none" viewBox="0 0 32 32" xmlns="http://www.w3.org/2000/svg" width="32" height="32"><path d="M2.245 9.941a3.886 3.886 0 013.7-3.628C8.811 6.171 12.91 6 16 6c3.088 0 7.188.171 10.055.313a3.886 3.886 0 013.7 3.628C29.88 11.837 30 14.17 30 16s-.121 4.163-.244 6.059a3.886 3.886 0 01-3.7 3.628C23.188 25.829 19.087 26 16 26c-3.088 0-7.188-.171-10.056-.313a3.886 3.886 0 01-3.7-3.628C2.122 20.163 2 17.83 2 16s.121-4.163.245-6.059z" fill="#FC0D1B"/><path d="M13 12v8l8-4-8-4z" fill="#fff"/></svg></g></g><g transform="translate(112, 13)"><circle cx="20" cy="20" r="21" stroke="#58a8f7" stroke-width="2" fill="#ffffff"/><g transform="translate(4, 4)"><svg fill="none" viewBox="0 0 32 32" xmlns="http://www.w3.org/2000/svg" width="32" height="32"><linearGradient id="g30x822jlff5u" x1="15.9657" y1="10.9802" x2="15.9657" y2="20.9592" gradientUnits="userSpaceOnUse">
<stop stop-color="#86BBE5"/>
<stop offset="1" stop-color="#1072BA"/>
</linearGradient><path d="M16 2.004s8.253-.37 12.628 7.896h-13.33s-2.515-.08-4.664 2.96c-.617 1.276-1.28 2.591-.536 5.182-1.073-1.81-5.695-9.83-5.695-9.83s3.26-5.881 11.598-6.208z" fill="#EF3F36"/><path d="M28.2 22.986s-3.808 7.308-13.175 6.946L21.69 18.43s1.331-2.13-.239-5.505c-.799-1.172-1.613-2.399-4.236-3.052 2.11-.02 11.389 0 11.389 0s3.476 5.755-.405 13.113z" fill="#FCD900"/><path d="M3.86 23.043S-.59 16.105 4.41 8.201c1.154 1.995 6.663 11.502 6.663 11.502s1.188 2.214 4.903 2.544c1.416-.103 2.89-.192 4.773-2.125-1.038 1.83-5.695 9.826-5.695 9.826s-6.744.123-11.196-6.905z" fill="#61BC5B"/><path d="M15.02 30.001l1.876-7.796s2.06-.161 3.788-2.049c-1.072 1.88-5.663 9.845-5.663 9.845z" fill="#5AB055"/><path d="M9.72 16.089c0-3.437 2.797-6.224 6.246-6.224 3.449 0 6.246 2.787 6.246 6.224 0 3.437-2.797 6.224-6.246 6.224-3.449-.004-6.246-2.787-6.246-6.224z" fill="#fff"/><path d="M10.765 16.09c0-2.861 2.327-5.183 5.201-5.183 2.87 0 5.2 2.318 5.2 5.182 0 2.86-2.326 5.182-5.2 5.182-2.87 0-5.2-2.322-5.2-5.182z" fill="url(#g30x822jlff5u)"/><path d="M28.6 9.877l-7.719 2.256s-1.165-1.703-3.669-2.256c2.172-.012 11.389 0 11.389 0z" fill="#EACA05"/><path d="M9.948 17.758c-1.085-1.872-5.545-9.546-5.545-9.546l5.718 5.636s-.586 1.203-.366 2.925l.192.985z" fill="#DF3A32"/></svg></g></g><g transform="translate(112, 153)"><circle cx="20" cy="20" r="21" stroke="#58a8f7" stroke-width="2" fill="#ffffff"/><g transform="translate(4, 4)"><svg fill="none" viewBox="0 0 32 32" xmlns="http://www.w3.org/2000/svg" width="32" height="32"><path d="M22 10h-2v6h2v-6zM15 10h2v6h-2v-6z" fill="#6445A2"/><path fill-rule="evenodd" clip-rule="evenodd" d="M5 8l1.568-4H28v15l-6 6h-5l-3.114 3H10v-3H5V8zm17 13l4-4V6H9v15h4v3l3-3h6z" fill="#6445A2"/></svg></g></g><g transform="translate(161, 31)"><circle cx="20" cy="20" r="21" stroke="#58a8f7" stroke-width="2" fill="#ffffff"/><g transform="translate(4, 4)"><svg fill="none" viewBox="0 0 32 32" xmlns="http://www.w3.org/2000/svg" width="32" height="32"><linearGradient id="g234ng4lpyuba8q" x1="15.8306" y1="12.2861" x2="9.78632" y2="23.1302" gradientUnits="userSpaceOnUse">
<stop stop-opacity="0"/>
<stop offset="1"/>
</linearGradient><radialGradient id="g235fjgg6eolc4j" cx="0" cy="0" r="1" gradientUnits="userSpaceOnUse" gradientTransform="translate(17.8195 13.1554) scale(15.8073)">
<stop stop-color="#2ABCE1"/>
<stop offset="0.11363" stop-color="#2ABBE1"/>
<stop offset="1" stop-color="#3375F8"/>
</radialGradient><linearGradient id="g233suzer8iadgm" x1="16" y1="30" x2="16" y2="2" gradientUnits="userSpaceOnUse">
<stop offset="0.25" stop-color="#DBDBDA"/>
<stop offset="1" stop-color="white"/>
</linearGradient><path d="M16 30c7.732 0 14-6.268 14-14S23.732 2 16 2 2 8.268 2 16s6.268 14 14 14z" fill="url(#g233suzer8iadgm)"/><path d="M16 28.95c7.152 0 12.95-5.798 12.95-12.95 0-7.152-5.798-12.95-12.95-12.95C8.848 3.05 3.05 8.848 3.05 16c0 7.152 5.798 12.95 12.95 12.95z" fill="url(#g235fjgg6eolc4j)"/><path d="M16.022 6.2c-.088 0-.164-.066-.164-.153V3.76c0-.088.076-.153.164-.153.087 0 .164.065.164.153v2.286c-.011.087-.077.153-.164.153z" fill="#F3F3F3"/><path d="M16.022 6.211c-.098 0-.175-.077-.175-.164V3.76c0-.088.077-.164.175-.164.098 0 .175.076.175.164v2.286c0 .087-.088.164-.175.164zm0-2.592c-.077 0-.153.065-.153.142v2.286c0 .076.065.142.153.142.077 0 .153-.066.153-.142V3.76c-.01-.077-.076-.142-.153-.142z" fill="#fff"/><path d="M17.116 4.975c-.088-.01-.153-.077-.153-.164l.076-1.017a.16.16 0 01.175-.142c.088.01.153.076.153.164l-.076 1.017a.16.16 0 01-.175.142z" fill="#F3F3F3"/><path d="M17.116 4.986a.178.178 0 01-.164-.175l.076-1.017c.011-.088.088-.164.186-.153a.178.178 0 01.164.175l-.076 1.017c-.011.098-.088.164-.186.153zm.098-1.323c-.076 0-.153.054-.153.13l-.077 1.018c0 .077.055.142.143.153.076 0 .153-.055.153-.131l.076-1.017c0-.077-.065-.143-.142-.153z" fill="#fff"/><path d="M17.936 6.397a.168.168 0 01-.131-.186l.448-2.242c.022-.088.099-.142.186-.12a.168.168 0 01.131.185l-.448 2.243c-.011.076-.099.13-.186.12z" fill="#F3F3F3"/><path d="M17.936 6.408a.178.178 0 01-.142-.197l.448-2.242a.176.176 0 01.208-.131c.098.021.153.109.142.196l-.448 2.243c-.022.087-.11.142-.208.13zm.514-2.549a.157.157 0 00-.175.11l-.448 2.242a.155.155 0 00.12.175.157.157 0 00.175-.11l.448-2.242c.011-.087-.043-.153-.12-.175z" fill="#fff"/><path d="M19.248 5.413a.164.164 0 01-.122-.134.16.16 0 01.002-.063l.274-.985c.021-.087.109-.13.196-.109.088.022.143.11.12.197l-.273.984c-.022.088-.11.131-.197.11z" fill="#F3F3F3"/><path d="M19.248 5.423c-.087-.021-.152-.12-.12-.207l.274-.985c.021-.087.12-.142.207-.12.088.022.153.12.12.208l-.273.984c-.021.088-.109.142-.207.12zm.361-1.28c-.076-.021-.164.023-.186.1l-.273.984c-.022.076.022.153.11.175.076.021.163-.022.185-.099l.274-.984a.157.157 0 00-.11-.175z" fill="#fff"/><path d="M19.785 6.955a.157.157 0 01-.088-.208l.875-2.111c.033-.077.131-.12.208-.077.087.033.12.132.087.208l-.875 2.111c-.032.077-.131.12-.207.077z" fill="#F3F3F3"/><path d="M19.784 6.966a.17.17 0 01-.098-.219l.875-2.111c.033-.087.131-.12.23-.087a.17.17 0 01.098.218l-.875 2.111c-.044.088-.142.131-.23.088zm.996-2.396a.148.148 0 00-.197.077l-.875 2.11c-.033.077.01.154.087.187s.164 0 .197-.077l.875-2.11a.156.156 0 00-.087-.187z" fill="#fff"/><path d="M21.261 6.255c-.077-.044-.11-.132-.077-.208l.46-.908a.16.16 0 01.219-.066c.076.044.109.132.076.208l-.46.908a.16.16 0 01-.218.066z" fill="#F3F3F3"/><path d="M21.261 6.266a.167.167 0 01-.077-.23l.46-.908a.167.167 0 01.23-.076c.087.043.12.142.076.23l-.46.907a.167.167 0 01-.229.077zm.602-1.193c-.077-.032-.165-.01-.197.066l-.46.908c-.032.066 0 .153.066.197.077.033.164.01.197-.066l.46-.908c.032-.065 0-.153-.066-.197z" fill="#fff"/><path d="M21.48 7.874c-.077-.055-.099-.154-.044-.22l1.269-1.891c.044-.077.142-.088.219-.044.076.055.098.153.043.219L21.7 7.83a.148.148 0 01-.22.044z" fill="#F3F3F3"/><path d="M21.48 7.884a.189.189 0 01-.055-.24l1.269-1.892a.173.173 0 01.24-.044.189.189 0 01.055.24L21.72 7.842a.175.175 0 01-.24.043zm1.444-2.154c-.066-.044-.165-.033-.208.033l-1.27 1.892a.142.142 0 00.045.197c.065.043.164.032.207-.033l1.27-1.881a.156.156 0 00-.044-.208z" fill="#fff"/><path d="M23.077 7.469c-.066-.055-.088-.153-.033-.219l.634-.798a.156.156 0 01.219-.022c.066.054.087.153.033.219l-.635.798a.156.156 0 01-.218.022z" fill="#F3F3F3"/><path d="M23.066 7.48c-.077-.055-.088-.164-.033-.241l.634-.798c.055-.077.164-.088.24-.022.077.054.088.164.034.24l-.635.799c-.054.076-.164.087-.24.022zm.82-1.04c-.066-.054-.153-.043-.208.022l-.634.799a.155.155 0 00.032.208c.066.054.154.043.208-.022l.635-.799c.043-.065.032-.164-.033-.207z" fill="#fff"/><path d="M22.967 9.11c-.065-.066-.065-.165 0-.22l1.619-1.607a.155.155 0 01.219 0c.054.055.065.164 0 .219l-1.608 1.607a.159.159 0 01-.23 0z" fill="#F3F3F3"/><path d="M22.956 9.12a.171.171 0 010-.24l1.619-1.608a.172.172 0 01.24 0 .171.171 0 010 .24L23.198 9.12a.172.172 0 01-.24 0zm1.849-1.837a.152.152 0 00-.208 0L22.978 8.89a.152.152 0 000 .207.152.152 0 00.208 0l1.619-1.607c.054-.055.054-.143 0-.208z" fill="#fff"/><path d="M24.608 9.022c-.055-.066-.055-.164.01-.219l.777-.656a.156.156 0 01.22.022c.054.065.054.164-.012.218l-.776.657a.156.156 0 01-.22-.022z" fill="#F3F3F3"/><path d="M24.597 9.033c-.066-.077-.055-.186.01-.24l.777-.657c.066-.066.175-.055.24.022.067.076.056.186-.01.24l-.777.657c-.065.065-.175.054-.24-.022zm1.006-.864c-.055-.066-.142-.066-.208-.022l-.776.656a.152.152 0 00-.011.208c.054.066.142.066.207.022l.777-.656c.066-.055.066-.143.011-.208z" fill="#fff"/><path d="M24.17 10.597a.148.148 0 01.044-.219l1.903-1.269c.077-.043.175-.021.219.044a.148.148 0 01-.044.219L24.39 10.64c-.066.043-.164.021-.219-.044z" fill="#F3F3F3"/><path d="M24.16 10.597a.175.175 0 01.043-.24l1.903-1.27a.168.168 0 01.24.055.175.175 0 01-.043.24l-1.903 1.27a.168.168 0 01-.24-.055zm2.165-1.433a.142.142 0 00-.197-.044l-1.903 1.269c-.066.044-.088.131-.033.208a.143.143 0 00.197.044l1.903-1.27a.155.155 0 00.033-.207z" fill="#fff"/><path d="M25.8 10.827a.16.16 0 01.055-.22l.886-.502c.076-.044.175-.011.218.065a.16.16 0 01-.054.22l-.886.502c-.077.044-.175.011-.219-.066z" fill="#F3F3F3"/><path d="M25.79 10.838c-.044-.088-.023-.186.054-.23l.886-.503c.076-.044.186-.011.23.065.043.088.021.186-.055.23l-.886.503c-.077.044-.186.011-.23-.066zm1.159-.657c-.044-.076-.132-.098-.197-.054l-.886.503a.157.157 0 00-.055.197c.044.076.131.098.197.054l.886-.503c.066-.033.088-.12.055-.197z" fill="#fff"/><path d="M25.067 12.281c-.032-.087 0-.175.088-.207l2.11-.875c.077-.033.176.01.208.087.033.088 0 .175-.087.208l-2.11.875a.156.156 0 01-.209-.088z" fill="#F3F3F3"/><path d="M25.056 12.292a.181.181 0 01.088-.23l2.11-.874a.17.17 0 01.22.098.181.181 0 01-.088.23l-2.11.875a.17.17 0 01-.22-.099zm2.396-.995a.156.156 0 00-.186-.088l-2.111.875a.148.148 0 00-.077.197c.033.077.12.11.186.088l2.11-.875c.078-.033.11-.12.078-.197z" fill="#fff"/><path d="M26.61 12.828c-.033-.087.01-.175.098-.208l.962-.317c.077-.033.175.022.197.099.033.087-.01.175-.098.207l-.963.318c-.076.032-.164-.011-.196-.099z" fill="#F3F3F3"/><path d="M26.598 12.84a.167.167 0 01.11-.22l.962-.317c.088-.033.186.022.219.11a.167.167 0 01-.11.218l-.962.318a.186.186 0 01-.219-.11zm1.27-.416c-.023-.077-.11-.12-.187-.099l-.962.317c-.077.022-.11.11-.088.186.022.077.11.12.186.099l.963-.318a.15.15 0 00.087-.185z" fill="#fff"/><path d="M25.625 14.13c-.022-.088.033-.175.12-.186l2.243-.438c.087-.022.164.044.185.131.022.088-.032.175-.12.186l-2.242.438c-.087.01-.175-.044-.186-.131z" fill="#F3F3F3"/><path d="M25.603 14.13a.176.176 0 01.131-.208l2.242-.438c.088-.021.175.044.197.143a.176.176 0 01-.13.207l-2.243.438c-.088.022-.175-.044-.197-.142zm2.548-.492a.147.147 0 00-.163-.12l-2.243.437c-.076.01-.131.098-.11.175a.147.147 0 00.165.12l2.242-.437c.077-.022.131-.099.11-.175z" fill="#fff"/><path d="M27.025 14.972c-.01-.088.044-.164.131-.175l1.006-.12a.16.16 0 01.175.142c.011.087-.043.164-.13.175l-1.007.12c-.077.011-.164-.055-.175-.142z" fill="#F3F3F3"/><path d="M27.014 14.972c-.01-.099.055-.186.142-.197l1.006-.12a.17.17 0 01.186.153c.011.098-.054.186-.142.197l-1.006.12a.17.17 0 01-.186-.153zm1.323-.153c-.01-.077-.087-.143-.164-.132l-1.006.12a.147.147 0 00-.12.165c.01.076.087.142.164.131l1.006-.12a.147.147 0 00.12-.164z" fill="#fff"/><path d="M25.8 16.033c0-.088.066-.164.153-.164h2.286c.088 0 .153.076.153.164 0 .087-.065.164-.153.164h-2.286c-.087 0-.153-.077-.153-.164z" fill="#F3F3F3"/><path d="M25.79 16.033c0-.099.076-.175.163-.175h2.286c.088 0 .164.076.164.175 0 .098-.076.175-.164.175h-2.286c-.087 0-.164-.077-.164-.175zm2.591.01c0-.076-.065-.152-.142-.152h-2.286c-.076 0-.142.065-.142.153 0 .076.066.153.142.153h2.286c.077-.011.142-.077.142-.153z" fill="#fff"/><path d="M27.014 17.137c.011-.087.077-.153.164-.153l1.017.077a.16.16 0 01.142.175c-.01.087-.076.153-.164.153l-1.017-.076c-.076-.011-.142-.088-.142-.175z" fill="#F3F3F3"/><path d="M27.003 17.138a.178.178 0 01.175-.165l1.018.077c.087.011.164.088.153.186a.177.177 0 01-.175.164l-1.018-.076c-.087-.011-.153-.099-.153-.186zm1.335.098a.139.139 0 00-.132-.153l-1.017-.077c-.076 0-.142.055-.153.143a.138.138 0 00.131.153l1.018.076c.076 0 .142-.065.153-.142z" fill="#fff"/><path d="M25.603 17.936a.168.168 0 01.186-.131l2.242.448c.088.022.143.099.12.186a.168.168 0 01-.185.131l-2.242-.448c-.077-.011-.132-.099-.12-.186z" fill="#F3F3F3"/><path d="M25.592 17.936a.179.179 0 01.197-.142l2.242.448a.178.178 0 01-.066.35l-2.242-.448c-.087-.022-.142-.11-.13-.208zm2.549.514a.157.157 0 00-.11-.175l-2.242-.448a.155.155 0 00-.175.12.157.157 0 00.11.175l2.242.448c.087.011.153-.044.175-.12z" fill="#fff"/><path d="M26.588 19.248a.163.163 0 01.196-.12l.985.274c.087.021.13.11.11.197a.163.163 0 01-.198.12l-.984-.274c-.088-.021-.131-.109-.11-.197z" fill="#F3F3F3"/><path d="M26.577 19.248c.022-.087.12-.153.207-.12l.985.273c.087.022.142.12.12.208-.022.088-.12.153-.208.12l-.984-.273c-.087-.022-.142-.11-.12-.207zm1.28.361c.021-.076-.023-.164-.1-.186l-.983-.273c-.077-.022-.154.022-.175.11-.022.076.021.163.098.185l.984.274a.157.157 0 00.175-.11z" fill="#fff"/><path d="M25.045 19.773a.156.156 0 01.208-.087l2.111.875c.077.033.12.131.088.208-.033.087-.132.12-.208.087l-2.111-.875a.156.156 0 01-.088-.207z" fill="#F3F3F3"/><path d="M25.034 19.763a.17.17 0 01.22-.099l2.11.875c.087.033.12.131.087.23a.17.17 0 01-.218.098l-2.111-.875c-.088-.044-.12-.142-.088-.23zm2.396.995a.148.148 0 00-.077-.197l-2.11-.875c-.077-.033-.154.011-.187.087a.148.148 0 00.077.197l2.11.875c.077.022.165-.01.187-.087z" fill="#fff"/><path d="M25.756 21.25c.044-.076.131-.11.208-.076l.908.459c.076.033.11.131.065.219-.043.076-.13.11-.207.076l-.908-.46c-.077-.043-.11-.141-.066-.218z" fill="#F3F3F3"/><path d="M25.745 21.24a.167.167 0 01.23-.077l.908.459c.087.044.12.142.076.23a.167.167 0 01-.23.076l-.907-.46c-.088-.032-.12-.141-.077-.229zm1.182.6c.032-.076.01-.163-.066-.196l-.908-.46c-.066-.032-.153 0-.197.066-.033.077-.01.164.066.197l.908.46c.076.032.164.01.197-.066z" fill="#fff"/><path d="M24.148 21.458c.055-.077.143-.099.22-.044l1.902 1.269c.077.044.088.142.044.219-.055.076-.142.098-.219.043l-1.903-1.268c-.076-.055-.098-.154-.044-.22z" fill="#F3F3F3"/><path d="M24.137 21.447a.19.19 0 01.241-.055l1.903 1.269a.173.173 0 01.044.24.189.189 0 01-.24.055l-1.904-1.268c-.087-.055-.098-.165-.044-.241zm2.155 1.444c.044-.066.033-.164-.032-.208l-1.904-1.269a.143.143 0 00-.197.044c-.043.066-.032.164.033.208l1.903 1.268a.142.142 0 00.197-.043z" fill="#fff"/><path d="M24.553 23.044c.055-.066.153-.088.219-.033l.798.623a.156.156 0 01.022.22c-.054.065-.153.087-.219.032l-.798-.623a.156.156 0 01-.022-.22z" fill="#F3F3F3"/><path d="M24.542 23.033c.055-.077.164-.088.24-.033l.8.623c.076.055.087.165.032.241-.055.077-.164.088-.24.033l-.799-.623c-.077-.055-.087-.165-.033-.241zm1.05.82c.055-.066.044-.153-.022-.208l-.798-.623a.155.155 0 00-.208.033c-.055.065-.044.153.022.207l.798.624a.155.155 0 00.208-.033z" fill="#fff"/><path d="M22.923 22.934c.066-.065.165-.065.22 0l1.618 1.608a.155.155 0 010 .219c-.066.066-.164.066-.219 0l-1.619-1.608c-.054-.055-.054-.164 0-.219z" fill="#F3F3F3"/><path d="M22.923 22.923a.171.171 0 01.241 0l1.619 1.608a.172.172 0 010 .24.171.171 0 01-.24 0l-1.62-1.607a.155.155 0 010-.24zm1.838 1.827a.152.152 0 000-.208l-1.619-1.608a.152.152 0 00-.208 0 .152.152 0 000 .208l1.62 1.608c.054.066.142.066.207 0z" fill="#fff"/><path d="M23.022 24.564c.066-.055.164-.055.219.011l.667.766a.156.156 0 01-.022.218c-.066.055-.164.055-.219-.01L23 24.782c-.055-.055-.044-.153.022-.219z" fill="#F3F3F3"/><path d="M23.011 24.564a.172.172 0 01.24.011l.668.766c.065.065.054.175-.022.24a.172.172 0 01-.24-.01l-.668-.766c-.055-.077-.055-.186.022-.241zm.875.995c.066-.054.066-.142.022-.207l-.667-.766a.152.152 0 00-.208-.011c-.066.055-.066.142-.022.208l.667.765c.055.066.142.066.208.011z" fill="#fff"/><path d="M21.447 24.148a.148.148 0 01.219.044l1.268 1.892c.044.077.022.175-.043.22a.148.148 0 01-.22-.045l-1.268-1.892c-.044-.076-.022-.175.044-.219z" fill="#F3F3F3"/><path d="M21.447 24.137a.175.175 0 01.24.044l1.27 1.892a.168.168 0 01-.055.24.175.175 0 01-.241-.043l-1.269-1.892a.166.166 0 01.055-.24zm1.444 2.155a.142.142 0 00.043-.197l-1.268-1.892c-.044-.065-.132-.076-.208-.033a.142.142 0 00-.044.197l1.269 1.892c.044.055.142.077.207.033z" fill="#fff"/><path d="M21.217 25.767a.16.16 0 01.219.055l.503.886c.044.076.01.175-.066.219a.16.16 0 01-.218-.055l-.503-.886c-.033-.077-.011-.175.065-.219z" fill="#F3F3F3"/><path d="M21.217 25.756c.088-.044.186-.022.23.055l.503.886c.044.077.022.186-.066.23-.087.044-.186.022-.23-.055l-.502-.886c-.044-.076-.022-.175.065-.23zm.656 1.16c.066-.044.099-.131.055-.197l-.503-.886a.157.157 0 00-.197-.055c-.066.044-.098.132-.055.197l.504.886c.032.066.13.099.196.055z" fill="#fff"/><path d="M19.763 25.045c.087-.032.175 0 .207.077l.886 2.11c.033.077-.01.176-.087.209-.077.032-.175 0-.208-.077l-.886-2.11c-.033-.078.011-.176.088-.209z" fill="#F3F3F3"/><path d="M19.762 25.034a.182.182 0 01.23.088l.886 2.11a.17.17 0 01-.098.22.181.181 0 01-.23-.088l-.886-2.11c-.033-.077.011-.176.098-.22zm.996 2.396c.076-.033.11-.12.076-.186l-.886-2.111a.148.148 0 00-.196-.077c-.077.033-.11.12-.077.186l.886 2.111c.044.077.12.11.197.077z" fill="#fff"/><path d="M19.227 26.598c.087-.032.174.011.207.099l.318.962c.032.077-.022.175-.099.197-.087.033-.175-.01-.208-.098l-.317-.963c-.033-.076.011-.164.099-.197z" fill="#F3F3F3"/><path d="M19.216 26.588a.17.17 0 01.219.098l.317.962c.033.088-.022.186-.11.22a.17.17 0 01-.218-.1l-.318-.962a.186.186 0 01.11-.218zm.426 1.257c.077-.021.12-.109.099-.185l-.317-.963c-.022-.076-.11-.11-.186-.087-.077.021-.12.109-.099.186l.317.962a.138.138 0 00.186.087z" fill="#fff"/><path d="M17.936 25.603c.087-.022.175.033.186.12l.46 2.243c.021.087-.044.164-.132.186-.087.021-.175-.033-.186-.12l-.46-2.243a.175.175 0 01.132-.186z" fill="#F3F3F3"/><path d="M17.936 25.592a.176.176 0 01.208.131l.46 2.243c.021.087-.045.186-.132.197a.176.176 0 01-.208-.132l-.46-2.242c-.021-.088.034-.175.132-.197zm.514 2.549c.077-.011.131-.088.12-.175l-.46-2.243c-.01-.076-.097-.13-.174-.11-.077.012-.131.088-.12.176l.46 2.242c.02.077.097.12.174.11z" fill="#fff"/><path d="M17.105 27.025a.168.168 0 01.186.131l.13 1.007a.16.16 0 01-.141.174.168.168 0 01-.186-.13l-.131-1.007a.16.16 0 01.142-.175z" fill="#F3F3F3"/><path d="M17.105 27.014c.098-.01.186.055.197.142l.13 1.007a.17.17 0 01-.152.186c-.099.01-.186-.055-.197-.143L16.95 27.2a.17.17 0 01.154-.186zm.164 1.313c.076-.011.142-.088.131-.164l-.131-1.007a.147.147 0 00-.164-.12c-.077.01-.143.087-.132.164l.132 1.006a.147.147 0 00.164.12z" fill="#fff"/><path d="M15.978 25.8c.088 0 .164.066.164.153v2.286c0 .087-.076.153-.164.153-.087 0-.164-.066-.164-.153v-2.286c.011-.087.077-.153.164-.153z" fill="#F3F3F3"/><path d="M15.978 25.789c.099 0 .175.076.175.164v2.286c0 .087-.076.164-.175.164-.098 0-.175-.077-.175-.164v-2.286c0-.087.088-.164.175-.164zm0 2.592c.077 0 .153-.065.153-.142v-2.286c0-.077-.065-.142-.153-.142-.076 0-.153.065-.153.142v2.286c.01.077.077.142.153.142z" fill="#fff"/><path d="M14.884 27.025c.088.01.153.077.153.164l-.076 1.017a.16.16 0 01-.175.143c-.088-.012-.153-.077-.153-.165l.076-1.017a.16.16 0 01.175-.142z" fill="#F3F3F3"/><path d="M14.884 27.014a.178.178 0 01.164.175l-.076 1.017c-.011.088-.088.164-.186.154a.178.178 0 01-.164-.175l.076-1.018c.011-.098.088-.164.186-.153zm-.098 1.324c.077 0 .153-.055.153-.132l.077-1.017c0-.076-.055-.142-.143-.153-.076 0-.153.055-.153.131l-.076 1.017c0 .077.065.143.142.154z" fill="#fff"/><path d="M14.064 25.603a.168.168 0 01.131.186l-.448 2.242c-.022.088-.099.143-.186.12a.168.168 0 01-.131-.185l.448-2.243c.011-.076.099-.13.186-.12z" fill="#F3F3F3"/><path d="M14.064 25.592c.099.022.153.11.142.197l-.448 2.242a.176.176 0 01-.208.131.178.178 0 01-.142-.197l.448-2.242c.022-.087.11-.142.208-.13v-.001zm-.514 2.549a.157.157 0 00.175-.11l.449-2.242a.155.155 0 00-.12-.175.157.157 0 00-.176.11l-.448 2.241c-.011.088.043.154.12.175z" fill="#fff"/><path d="M12.752 26.588c.087.021.142.109.12.197l-.273.984c-.022.087-.11.131-.197.11a.163.163 0 01-.12-.198l.273-.984c.022-.087.11-.131.197-.11z" fill="#F3F3F3"/><path d="M12.752 26.577c.087.022.153.12.12.207l-.274.985a.174.174 0 01-.207.12c-.088-.022-.153-.12-.12-.208l.273-.984c.022-.087.11-.142.208-.12zm-.361 1.28c.076.021.164-.023.186-.099l.273-.984c.022-.077-.022-.154-.11-.175-.076-.022-.163.021-.185.098l-.274.984a.157.157 0 00.11.175z" fill="#fff"/><path d="M12.216 25.045c.087.033.12.132.087.208l-.875 2.111c-.033.077-.131.12-.208.077-.076-.044-.12-.132-.087-.208l.875-2.111c.033-.077.131-.12.208-.077z" fill="#F3F3F3"/><path d="M12.216 25.034a.17.17 0 01.098.22l-.875 2.11c-.033.087-.131.12-.23.087a.17.17 0 01-.098-.218l.875-2.111c.044-.088.142-.131.23-.088zm-.996 2.396c.077.032.164 0 .197-.077l.875-2.11c.033-.077-.01-.154-.087-.187a.148.148 0 00-.197.077l-.875 2.11a.156.156 0 00.087.187z" fill="#fff"/><path d="M10.74 25.745c.076.044.108.132.076.208l-.46.908a.16.16 0 01-.219.066c-.076-.044-.109-.132-.076-.208l.46-.908a.16.16 0 01.218-.066z" fill="#F3F3F3"/><path d="M10.74 25.734c.087.044.12.143.076.23l-.46.908a.167.167 0 01-.23.076.167.167 0 01-.076-.23l.46-.907a.167.167 0 01.23-.077zm-.602 1.193c.076.032.164.01.197-.066l.459-.908c.033-.066 0-.153-.066-.197-.076-.032-.164-.01-.197.066l-.459.908c-.033.065 0 .153.066.197z" fill="#fff"/><path d="M10.52 24.127c.077.054.099.153.044.218l-1.269 1.893c-.043.076-.142.087-.218.044-.077-.055-.099-.154-.044-.22l1.269-1.892a.148.148 0 01.218-.044z" fill="#F3F3F3"/><path d="M10.52 24.116a.19.19 0 01.055.24L9.306 26.25a.173.173 0 01-.24.043.19.19 0 01-.055-.24l1.269-1.893a.175.175 0 01.24-.043zM9.077 26.27c.065.044.164.033.207-.032l1.27-1.893a.143.143 0 00-.045-.197c-.065-.043-.164-.032-.207.033l-1.27 1.881a.156.156 0 00.045.208z" fill="#fff"/><path d="M8.923 24.531c.066.055.088.153.033.219l-.634.798a.156.156 0 01-.219.022c-.065-.054-.087-.153-.033-.218l.635-.799a.156.156 0 01.218-.022z" fill="#F3F3F3"/><path d="M8.934 24.52c.077.055.088.164.033.24l-.634.8c-.055.076-.164.087-.24.021-.077-.054-.088-.164-.034-.24l.635-.799c.054-.076.164-.087.24-.022zm-.82 1.04c.066.054.153.043.208-.022l.634-.799a.155.155 0 00-.032-.208c-.066-.054-.154-.043-.208.022l-.635.799c-.043.065-.032.164.033.207z" fill="#fff"/><path d="M9.033 22.89c.065.066.065.165 0 .22l-1.619 1.607a.155.155 0 01-.219 0c-.054-.054-.065-.164 0-.218l1.608-1.608a.159.159 0 01.23 0z" fill="#F3F3F3"/><path d="M9.044 22.88a.172.172 0 010 .24l-1.619 1.608a.172.172 0 01-.24 0 .172.172 0 010-.24l1.618-1.608a.171.171 0 01.24 0zm-1.849 1.837a.152.152 0 00.208 0l1.619-1.608a.152.152 0 000-.207.152.152 0 00-.208 0l-1.619 1.607c-.054.055-.054.143 0 .208z" fill="#fff"/><path d="M7.392 22.978c.055.066.055.164-.01.219l-.777.656a.156.156 0 01-.22-.022c-.054-.065-.054-.164.012-.218l.776-.657a.156.156 0 01.22.022z" fill="#F3F3F3"/><path d="M7.403 22.967c.066.077.055.186-.01.24l-.777.657c-.066.066-.175.055-.241-.022-.066-.076-.055-.186.01-.24l.777-.657c.066-.065.175-.054.241.022zm-1.006.864c.055.066.142.066.207.022l.777-.656a.152.152 0 00.011-.208c-.055-.066-.142-.066-.208-.022l-.776.656c-.066.055-.066.143-.011.208z" fill="#fff"/><path d="M7.83 21.403a.148.148 0 01-.044.219L5.883 22.89c-.077.043-.175.021-.219-.044a.148.148 0 01.044-.219l1.903-1.269c.066-.043.164-.022.219.044z" fill="#F3F3F3"/><path d="M7.84 21.403a.175.175 0 01-.043.24l-1.903 1.27a.168.168 0 01-.24-.055.175.175 0 01.043-.24l1.903-1.27a.168.168 0 01.24.055zm-2.165 1.433a.142.142 0 00.197.044l1.903-1.27c.066-.043.087-.13.033-.207a.142.142 0 00-.197-.044l-1.903 1.27a.155.155 0 00-.033.207z" fill="#fff"/><path d="M6.2 21.174a.16.16 0 01-.055.218l-.886.503c-.076.044-.175.011-.218-.065a.16.16 0 01.054-.22l.886-.502c.077-.044.175-.011.22.066z" fill="#F3F3F3"/><path d="M6.211 21.163c.044.087.022.185-.055.23l-.886.502c-.076.044-.186.011-.23-.065-.043-.088-.021-.186.055-.23l.886-.503c.077-.044.186-.011.23.066zm-1.16.656c.044.076.132.098.197.054l.886-.503a.157.157 0 00.055-.197c-.044-.076-.131-.098-.197-.054l-.886.503c-.065.033-.087.12-.054.197z" fill="#fff"/><path d="M6.933 19.719c.032.087 0 .175-.088.208l-2.11.875c-.077.032-.176-.011-.208-.088-.033-.087 0-.175.087-.208l2.111-.875a.156.156 0 01.208.088z" fill="#F3F3F3"/><path d="M6.944 19.708a.181.181 0 01-.088.23l-2.11.875a.17.17 0 01-.22-.099.181.181 0 01.088-.23l2.111-.875a.17.17 0 01.219.099zm-2.396.995c.033.077.12.11.186.088l2.111-.875a.148.148 0 00.077-.197.156.156 0 00-.186-.088l-2.111.875a.148.148 0 00-.077.197z" fill="#fff"/><path d="M5.39 19.172c.033.087-.01.175-.098.208l-.962.317c-.077.033-.175-.022-.197-.098-.033-.088.01-.175.098-.208l.963-.317c.076-.033.164.01.197.098z" fill="#F3F3F3"/><path d="M5.401 19.161a.167.167 0 01-.109.219l-.962.317c-.088.033-.186-.022-.22-.11a.167.167 0 01.11-.218l.963-.317a.186.186 0 01.218.11v-.001zm-1.268.416c.022.076.11.12.186.098l.962-.317c.077-.022.11-.11.088-.186-.022-.076-.11-.12-.186-.098l-.963.317a.15.15 0 00-.087.186z" fill="#fff"/><path d="M6.375 17.87c.022.088-.033.175-.12.186l-2.242.438c-.088.022-.164-.044-.186-.131-.022-.088.032-.175.12-.186l2.242-.438c.088-.01.175.044.186.131z" fill="#F3F3F3"/><path d="M6.397 17.87a.176.176 0 01-.131.208l-2.243.438c-.087.022-.175-.044-.196-.142a.176.176 0 01.13-.208l2.243-.438c.087-.022.175.044.197.142zm-2.549.493c.011.076.088.13.164.12l2.243-.438c.076-.01.13-.098.11-.175a.147.147 0 00-.165-.12l-2.242.438c-.077.021-.131.098-.11.175z" fill="#fff"/><path d="M4.975 17.028c.011.088-.044.164-.131.175l-1.006.12a.16.16 0 01-.175-.142.151.151 0 01.13-.175l1.007-.12c.077-.011.164.055.175.142z" fill="#F3F3F3"/><path d="M4.986 17.028c.011.099-.055.186-.142.197l-1.006.12a.17.17 0 01-.186-.153c-.011-.098.054-.186.142-.197l1.006-.12a.17.17 0 01.186.153zm-1.323.153c.01.077.087.142.164.131l1.006-.12a.147.147 0 00.12-.164c-.01-.076-.087-.142-.164-.131l-1.006.12a.147.147 0 00-.12.164z" fill="#fff"/><path d="M6.2 15.967c0 .088-.066.164-.153.164H3.76c-.087 0-.153-.076-.153-.164 0-.087.066-.164.153-.164h2.286c.087 0 .153.077.153.164z" fill="#F3F3F3"/><path d="M6.211 15.967c0 .099-.077.175-.164.175H3.76c-.087 0-.164-.076-.164-.175 0-.098.077-.175.164-.175h2.286c.088 0 .164.077.164.175zm-2.592-.01c0 .076.065.152.142.152h2.286c.076 0 .142-.065.142-.153 0-.076-.066-.153-.142-.153H3.76c-.076.011-.142.077-.142.153z" fill="#fff"/><path d="M4.986 14.863c-.01.087-.076.153-.164.153l-1.017-.077a.16.16 0 01-.142-.175c.01-.087.076-.153.164-.153l1.017.076c.076.011.142.088.142.176z" fill="#E2E2E2"/><path d="M4.997 14.863a.178.178 0 01-.175.164l-1.017-.077c-.088-.01-.164-.087-.153-.186a.178.178 0 01.175-.164l1.017.077c.087.01.153.098.153.186zm-1.335-.099a.139.139 0 00.132.153l1.017.077c.076 0 .142-.055.153-.142a.138.138 0 00-.131-.154l-1.018-.076c-.076 0-.142.066-.153.142z" fill="#fff"/><path d="M6.397 14.064a.168.168 0 01-.186.131l-2.242-.459c-.088-.022-.143-.099-.12-.186a.168.168 0 01.185-.131l2.243.448c.076.022.13.11.12.197z" fill="#F3F3F3"/><path d="M6.408 14.064a.178.178 0 01-.197.142l-2.242-.448a.176.176 0 01-.131-.208.178.178 0 01.196-.142l2.243.448c.087.022.142.11.13.208zm-2.549-.514a.157.157 0 00.11.175l2.242.448a.155.155 0 00.175-.12.157.157 0 00-.11-.175l-2.241-.448c-.088-.011-.154.043-.175.12z" fill="#fff"/><path d="M5.413 12.752a.162.162 0 01-.197.12l-.985-.274c-.087-.022-.13-.109-.109-.196a.162.162 0 01.197-.12l.984.273c.088.021.132.109.11.197z" fill="#F3F3F3"/><path d="M5.423 12.752c-.021.087-.12.153-.207.12l-.985-.274a.175.175 0 01-.12-.207c.022-.088.12-.153.208-.12l.984.273c.088.022.142.11.12.208zm-1.28-.362c-.021.077.023.165.1.186l.984.274c.076.022.153-.022.175-.11.021-.076-.022-.164-.099-.185l-.984-.274a.157.157 0 00-.175.11z" fill="#fff"/><path d="M6.955 12.227c-.033.087-.132.12-.208.087l-2.111-.875c-.077-.033-.12-.131-.088-.208.033-.087.132-.12.208-.087l2.111.875c.088.033.12.131.088.208z" fill="#F3F3F3"/><path d="M6.966 12.238a.17.17 0 01-.22.098l-2.11-.875c-.088-.033-.12-.131-.088-.23a.17.17 0 01.22-.098l2.11.875c.088.044.12.142.088.23zm-2.396-.996a.148.148 0 00.077.197l2.11.875c.077.033.154-.01.187-.087a.148.148 0 00-.077-.197l-2.11-.875c-.077-.022-.165.01-.187.087z" fill="#fff"/><path d="M6.244 10.75c-.044.077-.131.11-.208.077l-.908-.46c-.076-.033-.11-.131-.065-.219.043-.076.13-.109.207-.076l.908.46c.077.043.11.142.066.218z" fill="#F3F3F3"/><path d="M6.255 10.761a.167.167 0 01-.23.077l-.908-.46a.167.167 0 01-.076-.23.167.167 0 01.23-.076l.907.46c.088.032.12.142.077.229zm-1.181-.602c-.033.077-.011.164.065.197l.908.46c.066.032.153 0 .197-.066.033-.076.01-.164-.066-.197l-.919-.459a.135.135 0 00-.186.066z" fill="#fff"/><path d="M7.851 10.542c-.054.077-.142.099-.218.044L5.74 9.328c-.076-.044-.087-.142-.043-.219a.148.148 0 01.219-.043l1.903 1.268c.065.044.087.143.032.208z" fill="#F3F3F3"/><path d="M7.862 10.553a.189.189 0 01-.24.055L5.73 9.339a.173.173 0 01-.044-.24.189.189 0 01.24-.055l1.893 1.268a.166.166 0 01.043.241zM5.708 9.11c-.044.066-.033.164.032.208l1.904 1.27a.142.142 0 00.197-.045c.043-.065.032-.164-.033-.207l-1.903-1.27a.142.142 0 00-.197.044z" fill="#fff"/><path d="M7.447 8.956c-.055.066-.153.088-.219.033l-.798-.623a.156.156 0 01-.022-.22c.054-.065.153-.087.219-.032l.798.623a.156.156 0 01.022.22z" fill="#F3F3F3"/><path d="M7.458 8.967c-.055.077-.164.088-.24.033l-.8-.623c-.076-.055-.087-.164-.032-.24.055-.077.164-.088.24-.034l.799.624c.077.054.088.164.033.24zm-1.05-.82c-.055.065-.044.153.022.208l.798.623a.155.155 0 00.208-.033c.055-.065.044-.153-.022-.207l-.798-.624a.155.155 0 00-.208.033z" fill="#fff"/><path d="M9.076 9.066c-.065.065-.164.065-.218 0l-1.63-1.608a.155.155 0 010-.219c.066-.065.164-.065.219 0l1.619 1.608a.156.156 0 01.01.219z" fill="#F3F3F3"/><path d="M9.077 9.077a.172.172 0 01-.24 0l-1.62-1.608a.172.172 0 010-.241.172.172 0 01.24 0l1.62 1.608a.155.155 0 010 .24zM7.239 7.25a.152.152 0 000 .208l1.62 1.607a.152.152 0 00.207 0 .152.152 0 000-.207L7.447 7.239c-.055-.055-.142-.055-.208.011z" fill="#fff"/><path d="M8.978 7.436c-.065.055-.164.055-.219-.011l-.667-.766a.156.156 0 01.022-.218c.066-.055.164-.055.219.01L9 7.218c.055.055.044.153-.022.219z" fill="#F3F3F3"/><path d="M8.99 7.436a.172.172 0 01-.242-.011l-.667-.766c-.065-.065-.054-.175.022-.24a.171.171 0 01.24.01l.668.766c.055.077.055.186-.022.241zm-.876-.995c-.066.054-.066.142-.022.207l.667.766a.152.152 0 00.208.011c.066-.055.066-.142.022-.208l-.667-.765c-.055-.066-.142-.066-.208-.011z" fill="#fff"/><path d="M10.553 7.852a.148.148 0 01-.219-.044l-1.28-1.892c-.043-.077-.021-.175.044-.22a.148.148 0 01.22.045l1.268 1.892a.155.155 0 01-.033.219z" fill="#F3F3F3"/><path d="M10.553 7.863a.175.175 0 01-.24-.044l-1.27-1.892a.168.168 0 01.056-.24.175.175 0 01.24.043l1.269 1.892a.167.167 0 01-.055.24zM9.11 5.708a.142.142 0 00-.043.197l1.268 1.892c.044.066.132.077.208.033a.142.142 0 00.044-.197L9.317 5.752a.156.156 0 00-.207-.044z" fill="#fff"/><path d="M10.783 6.233a.16.16 0 01-.219-.055l-.503-.886c-.044-.076-.011-.175.066-.219a.16.16 0 01.218.055l.503.886c.033.077.011.175-.065.219z" fill="#F3F3F3"/><path d="M10.783 6.244c-.088.044-.186.022-.23-.055l-.503-.886c-.044-.076-.022-.186.066-.23.087-.043.186-.021.23.055l.502.886c.044.077.022.175-.065.23zm-.656-1.16c-.066.044-.099.132-.055.197l.503.886a.157.157 0 00.197.055c.066-.044.098-.131.055-.197l-.504-.886c-.032-.065-.13-.098-.196-.055z" fill="#fff"/><path d="M12.237 6.955c-.087.032-.175 0-.207-.077l-.886-2.11c-.033-.077.01-.176.087-.209.088-.032.175 0 .208.077l.886 2.11c.033.077-.011.176-.088.209z" fill="#F3F3F3"/><path d="M12.238 6.966a.181.181 0 01-.23-.088l-.886-2.11a.17.17 0 01.098-.22.182.182 0 01.23.088l.886 2.111c.033.077-.01.175-.098.219zm-.996-2.396c-.076.033-.109.12-.076.186l.886 2.111c.032.077.12.11.197.077.076-.033.109-.12.076-.186l-.886-2.111c-.044-.077-.12-.11-.197-.077z" fill="#fff"/><path d="M12.773 5.402c-.087.032-.175-.011-.207-.099l-.318-.962c-.032-.077.022-.175.099-.197.076-.022.175.01.208.098l.317.963c.033.076-.011.164-.099.197z" fill="#F3F3F3"/><path d="M12.784 5.413a.17.17 0 01-.218-.099l-.318-.962c-.032-.088.022-.186.11-.22a.17.17 0 01.219.1l.317.962a.186.186 0 01-.11.219zm-.426-1.258c-.077.022-.12.11-.099.186l.318.962c.021.077.109.11.186.088.076-.022.12-.11.098-.186l-.317-.963a.138.138 0 00-.186-.087z" fill="#fff"/><path d="M14.064 6.397c-.088.022-.175-.033-.186-.12l-.46-2.243c-.021-.087.045-.164.132-.186.087-.021.175.033.186.12l.46 2.243a.175.175 0 01-.132.186z" fill="#F3F3F3"/><path d="M14.064 6.408a.176.176 0 01-.208-.131l-.46-2.243c-.021-.087.045-.186.132-.196a.176.176 0 01.208.13l.46 2.243c.021.087-.034.175-.132.197zm-.514-2.549c-.077.011-.131.088-.12.175l.459 2.243c.011.076.098.13.175.109.077-.011.131-.088.12-.175l-.46-2.242a.157.157 0 00-.174-.11z" fill="#fff"/><path d="M14.895 4.975a.168.168 0 01-.186-.131l-.13-1.006a.16.16 0 01.141-.175.168.168 0 01.186.13l.131 1.007a.16.16 0 01-.142.175z" fill="#F3F3F3"/><path d="M14.895 4.986c-.098.01-.186-.055-.197-.142l-.13-1.006a.17.17 0 01.152-.186c.099-.011.186.054.197.142L15.05 4.8a.17.17 0 01-.154.186zm-.164-1.313c-.076.011-.142.088-.131.165l.131 1.006a.147.147 0 00.164.12c.077-.01.143-.087.132-.164l-.132-1.006a.147.147 0 00-.164-.12z" fill="#fff"/><path d="M16.077 28.94c7.152 0 12.95-5.799 12.95-12.95 0-7.153-5.798-12.95-12.95-12.95-7.152 0-12.95 5.797-12.95 12.95 0 7.151 5.798 12.95 12.95 12.95z" fill="url(#g234ng4lpyuba8q)" fill-opacity=".2"/><path d="M25.045 7.775L14.6 14.469h-.011v.01l-.01.012-6.52 10.751 9.582-7.71.01-.012v-.01l7.395-9.735z" fill="#000" fill-opacity=".05"/><path d="M24.848 7.152L14.523 14.49l3.063 3.04 7.262-10.38z" fill="#CD151E"/><path d="M14.534 14.469l1.543 1.52 8.771-8.837-10.314 7.317z" fill="#FA5153"/><path d="M14.534 14.469l3.063 3.04-10.325 7.34 7.262-10.38z" fill="#ACACAC"/><path d="M7.272 24.848l8.805-8.859-1.543-1.52-7.262 10.38z" fill="#EEE"/></svg></g></g><g transform="translate(161, 135)"><circle cx="20" cy="20" r="21" stroke="#58a8f7" stroke-width="2" fill="#ffffff"/><g transform="translate(4, 4)"><svg fill="none" viewBox="0 0 32 32" xmlns="http://www.w3.org/2000/svg" width="32" height="32"><path d="M5.797 6.996l-3.751 3.4 1.298 1.635c.578-.36 1.734-1.297 2.25-1.297 1.156 0 2.195 3.133 3.187 6.579.89 3.093 1.813 10.78 6.063 10.78 4.89 0 15.172-13.202 15.172-19.079 0-2.126-.422-5.186-4.657-5.186-4.537 0-6.77 4.38-7.319 6.569.395-.264 1.47-.44 2.063-.44 2.413 0 1.898 2.502 1.569 3.512-.33 1.009-2.86 5.923-4.224 5.923-1.667 0-2.655-7.24-3.138-10.378-.482-3.137-1.733-4.849-3.642-4.849-1.527 0-3.883 1.887-4.87 2.83z" fill="#3CB9E6"/></svg></g></g></svg></g><g transform="translate(736, 736)"><rect x="0" y="0" width="272" height="210" fill="#FFFFFF" opacity="1" rx="0"/><svg viewBox="0 0 272 210" width="272" height="210"><svg width="272" height="210" viewBox="0 0 278 210" fill="none" xmlns="http://www.w3.org/2000/svg" class="cjm-channels_chart"><path d="m0 105 L272 105 m-24 -25 l24 25 l-24 25" stroke="#58a8f7" stroke-width="8px" fill="none"/></svg><g transform="translate(54.5, 83)"><circle cx="20" cy="20" r="21" stroke="#58a8f7" stroke-width="2" fill="#ffffff"/><g transform="translate(4, 4)"><svg fill="none" viewBox="0 0 32 32" xmlns="http://www.w3.org/2000/svg" width="32" height="32"><linearGradient id="g15sauyn69cq8c" x1="16" y1="2" x2="16" y2="30" gradientUnits="userSpaceOnUse">
<stop stop-color="#2AC9FA"/>
<stop offset="1" stop-color="#1F65EB"/>
</linearGradient><circle cx="16" cy="16" r="14" fill="url(#g15sauyn69cq8c)"/><path d="M18.447 8.654a1.106 1.106 0 00-.404-1.507 1.096 1.096 0 00-1.5.406l-.528.921-.527-.92a1.096 1.096 0 00-1.5-.407 1.106 1.106 0 00-.404 1.507l1.164 2.032-3.683 6.429H8.098A1.1 1.1 0 007 18.218a1.1 1.1 0 001.098 1.104h10.334c.091-.24.186-.65.085-1.027-.153-.567-.717-1.18-1.663-1.18H13.6l4.847-8.461zM11.636 20.542c-.187-.21-.607-.543-.975-.653-.561-.168-.987-.063-1.202.029l-.818 1.428a1.106 1.106 0 00.404 1.507 1.095 1.095 0 001.5-.406l1.091-1.905z" fill="#fff"/><path d="M22.23 19.322h1.672A1.1 1.1 0 0025 18.218a1.1 1.1 0 00-1.098-1.103h-2.937l-3.308-5.774c-.245.235-.716.834-.788 1.514-.091.873.046 1.609.458 2.329 1.385 2.422 2.772 4.842 4.158 7.263.303.528.974.71 1.5.406.526-.304.707-.979.404-1.507l-1.16-2.024z" fill="#fff"/></svg></g></g><g transform="translate(176.5, 83)"><circle cx="20" cy="20" r="21" stroke="#58a8f7" stroke-width="2" fill="#ffffff"/><g transform="translate(4, 4)"><svg fill="none" viewBox="0 0 32 32" xmlns="http://www.w3.org/2000/svg" width="32" height="32"><linearGradient id="g56gi2ccv7bbas" x1="8.10768" y1="1.90137" x2="22.5975" y2="13.7365" gradientUnits="userSpaceOnUse">
<stop stop-color="#11D574"/>
<stop offset="1" stop-color="#01F176"/>
</linearGradient><linearGradient id="g55hls6iog4t39" x1="7.36923" y1="30.1002" x2="22.5949" y2="17.8934" gradientUnits="userSpaceOnUse">
<stop stop-color="#DE2453"/>
<stop offset="1" stop-color="#FE3944"/>
</linearGradient><linearGradient id="g54y25uvtog88" x1="20.2924" y1="15.8178" x2="31.7385" y2="15.8178" gradientUnits="userSpaceOnUse">
<stop stop-color="#FFCE00"/>
<stop offset="1" stop-color="#FFEA00"/>
</linearGradient><linearGradient id="g5327iuc5f525s" x1="15.6769" y1="10.8737" x2="7.07106" y2="19.5504" gradientUnits="userSpaceOnUse">
<stop stop-color="#00C3FF"/>
<stop offset="1" stop-color="#1BE2FA"/>
</linearGradient><mask id="dwa" maskUnits="userSpaceOnUse" x="7" y="3" width="24" height="26"><path d="M30.048 14.4a1.82 1.82 0 010 3.2L9.756 28.766c-1.235.68-2.756-.203-2.756-1.6V4.834c0-1.397 1.52-2.28 2.756-1.6L30.048 14.4z" fill="#C4C4C4"/></mask><mask id="dwa" maskUnits="userSpaceOnUse" x="7" y="3" width="24" height="26"><path d="M30.048 14.4a1.82 1.82 0 010 3.2L9.756 28.766c-1.235.68-2.756-.203-2.756-1.6V4.834c0-1.397 1.52-2.28 2.756-1.6L30.048 14.4z" fill="#C4C4C4"/></mask><g mask="url(#dwa)"><path d="M7.635 28.546l12.657-12.728L7.843 3.298A1.807 1.807 0 007 4.835v22.332c0 .57.252 1.053.635 1.38z" fill="url(#g5327iuc5f525s)"/><path d="M30.048 14.4a1.82 1.82 0 010 3.2l-5.119 2.817-4.637-4.6 4.4-4.364 5.356 2.947z" fill="url(#g54y25uvtog88)"/><path d="M24.93 20.417l-4.638-4.6-12.657 12.73c.556.476 1.389.622 2.121.219l15.173-8.35z" fill="url(#g55hls6iog4t39)"/><path d="M7.843 3.299l12.45 12.519 4.4-4.365L9.756 3.234a1.859 1.859 0 00-1.913.065z" fill="url(#g56gi2ccv7bbas)"/></g></svg></g></g></svg></g><g transform="translate(1012, 736)"><rect x="0" y="0" width="272" height="210" fill="#FFFFFF" opacity="1" rx="0"/><svg viewBox="0 0 272 210" width="272" height="210"><svg width="272" height="210" viewBox="0 0 278 210" fill="none" xmlns="http://www.w3.org/2000/svg" class="cjm-channels_chart"><path d="m0 105 L272 105 m-24 -25 l24 25 l-24 25" stroke="#58a8f7" stroke-width="8px" fill="none"/></svg><g transform="translate(54.5, 83)"><circle cx="20" cy="20" r="21" stroke="#58a8f7" stroke-width="2" fill="#ffffff"/><g transform="translate(4, 4)"><svg fill="none" viewBox="0 0 32 32" xmlns="http://www.w3.org/2000/svg" width="32" height="32"><circle cx="16" cy="16" r="14" fill="#D85637"/><path fill-rule="evenodd" clip-rule="evenodd" d="M11 9h7a5 5 0 010 10h-4v4h-3V9zm3 7v-4h4a2 2 0 110 4h-4z" fill="#fff"/></svg></g></g></svg></g><g transform="translate(1288, 736)"><rect x="0" y="0" width="416" height="210" fill="#FFFFFF" opacity="1" rx="0"/><svg viewBox="0 0 416 210" width="416" height="210"><svg width="416" height="210" viewBox="0 0 422 210" fill="none" xmlns="http://www.w3.org/2000/svg" class="cjm-channels_chart"><path d="m0 105 L416 105 m-24 -25 l24 25 l-24 25" stroke="#58a8f7" stroke-width="8px" fill="none"/></svg><g transform="translate(56.9, 83)"><circle cx="20" cy="20" r="21" stroke="#58a8f7" stroke-width="2" fill="#ffffff"/><g transform="translate(4, 4)"><svg fill="none" viewBox="0 0 32 32" xmlns="http://www.w3.org/2000/svg" width="32" height="32"><path d="M26.5 15a2.5 2.5 0 10-2.5-2.5V15h2.5zm-7 0a2.5 2.5 0 002.5-2.5v-7a2.5 2.5 0 00-5 0v7a2.5 2.5 0 002.5 2.5z" fill="#2EB67D"/><path d="M5.5 17A2.5 2.5 0 108 19.5V17H5.5zm7 0a2.5 2.5 0 00-2.5 2.5v7a2.5 2.5 0 005 0v-7a2.5 2.5 0 00-2.5-2.5z" fill="#E01E5A"/><path d="M17 26.5a2.5 2.5 0 102.5-2.5H17v2.5zm0-7a2.5 2.5 0 002.5 2.5h7a2.5 2.5 0 000-5h-7a2.5 2.5 0 00-2.5 2.5z" fill="#ECB22E"/><path d="M15 5.5A2.5 2.5 0 1012.5 8H15V5.5zm0 7a2.5 2.5 0 00-2.5-2.5h-7a2.5 2.5 0 000 5h7a2.5 2.5 0 002.5-2.5z" fill="#36C5F0"/></svg></g></g><g transform="translate(188.5, 83)"><circle cx="20" cy="20" r="21" stroke="#58a8f7" stroke-width="2" fill="#ffffff"/><g transform="translate(4, 4)"><svg fill="none" viewBox="0 0 32 32" xmlns="http://www.w3.org/2000/svg" width="32" height="32"><path d="M11.789 28c-3.235 0-6.25-.94-8.789-2.564 2.155.14 5.958-.195 8.324-2.451-3.559-.163-5.164-2.893-5.373-4.059.302.117 1.744.257 2.558-.07-4.093-1.026-4.721-4.619-4.582-5.715.768.537 2.07.723 2.582.676-3.814-2.729-2.442-6.834-1.767-7.72 2.737 3.792 6.84 5.922 11.914 6.04a5.865 5.865 0 01-.146-1.305C16.51 7.61 19.113 5 22.325 5a5.79 5.79 0 014.25 1.853c1.122-.263 2.81-.878 3.634-1.41-.416 1.493-1.71 2.738-2.493 3.2.006.016-.007-.016 0 0 .688-.104 2.549-.462 3.284-.96-.364.838-1.736 2.233-2.862 3.013C28.348 19.938 21.276 28 11.788 28z" fill="#47ACDF"/></svg></g></g><g transform="translate(254.3, 83)"><circle cx="20" cy="20" r="21" stroke="#58a8f7" stroke-width="2" fill="#ffffff"/><g transform="translate(4, 4)"><svg fill="none" viewBox="0 0 32 32" xmlns="http://www.w3.org/2000/svg" width="32" height="32"><radialGradient id="g61sz41z2q97g" cx="0" cy="0" r="1" gradientUnits="userSpaceOnUse" gradientTransform="translate(1.38204e-06 1.5) rotate(-5.85601) scale(39.2046 8.38546)">
            <stop offset="0.151136" stop-color="#406ADC"/>
            <stop offset="0.467799" stop-color="#6A45BE"/>
            <stop offset="1" stop-color="#6A45BE" stop-opacity="0"/>
        </radialGradient><radialGradient id="g60lai18h22ww" cx="0" cy="0" r="1" gradientUnits="userSpaceOnUse" gradientTransform="translate(11 31) rotate(-65.1363) scale(22.5942)">
            <stop stop-color="#E0E8B7"/>
            <stop offset="0.444662" stop-color="#FB8A2E"/>
            <stop offset="0.71474" stop-color="#E2425C"/>
            <stop offset="1" stop-color="#E2425C" stop-opacity="0"/>
        </radialGradient><radialGradient id="g59hf5hv45qq2" cx="0" cy="0" r="1" gradientUnits="userSpaceOnUse" gradientTransform="translate(16.5 20) rotate(-60.9454) scale(20.5913)">
            <stop stop-color="#B13589"/>
            <stop offset="0.64092" stop-color="#C62F94"/>
            <stop offset="1" stop-color="#8A3AC8"/>
        </radialGradient><rect x="2" y="2" width="28" height="28" rx="6" fill="url(#g59hf5hv45qq2)"/><rect x="2" y="2" width="28" height="28" rx="6" fill="url(#g60lai18h22ww)"/><rect x="2" y="2" width="28" height="28" rx="6" fill="url(#g61sz41z2q97g)"/><path d="M23 10.5a1.5 1.5 0 11-3 0 1.5 1.5 0 013 0z" fill="#fff"/><path fill-rule="evenodd" clip-rule="evenodd" d="M16 21a5 5 0 100-10 5 5 0 000 10zm0-2a3 3 0 100-6 3 3 0 000 6z" fill="#fff"/><path fill-rule="evenodd" clip-rule="evenodd" d="M6 15.6c0-3.36 0-5.04.654-6.324a6 6 0 012.622-2.622C10.56 6 12.24 6 15.6 6h.8c3.36 0 5.04 0 6.324.654a6 6 0 012.622 2.622C26 10.56 26 12.24 26 15.6v.8c0 3.36 0 5.04-.654 6.324a6 6 0 01-2.622 2.622C21.44 26 19.76 26 16.4 26h-.8c-3.36 0-5.04 0-6.324-.654a6 6 0 01-2.622-2.622C6 21.44 6 19.76 6 16.4v-.8zM15.6 8h.8c1.713 0 2.878.002 3.778.075.877.072 1.325.202 1.638.361a4 4 0 011.748 1.748c.16.313.29.761.36 1.638.074.9.076 2.065.076 3.778v.8c0 1.713-.002 2.878-.075 3.778-.072.877-.202 1.325-.361 1.638a4 4 0 01-1.748 1.748c-.313.16-.761.29-1.638.36-.9.074-2.065.076-3.778.076h-.8c-1.713 0-2.878-.002-3.778-.075-.877-.072-1.325-.202-1.638-.361a4 4 0 01-1.748-1.748c-.16-.313-.29-.761-.36-1.638C8.001 19.278 8 18.113 8 16.4v-.8c0-1.713.002-2.878.075-3.778.072-.877.202-1.325.361-1.638a4 4 0 011.748-1.748c.313-.16.761-.29 1.638-.36.9-.074 2.065-.076 3.778-.076z" fill="#fff"/></svg></g></g></svg></g><g transform="translate(184, 950)"><rect x="0" y="0" width="272" height="113" fill="#FFFFFF" opacity="1" rx="0"/><svg xmlns="http://www.w3.org/2000/svg" width="50" height="40" viewBox="0 0 50 40" x="16" y="16"><defs><linearGradient id="paint0_linear" x1="0" y1="40" x2="50" y2="40" gradientUnits="userSpaceOnUse"><stop stop-color="#0D87FF" stop-opacity="0.5"/><stop offset="1" stop-color="#0D87FF" stop-opacity="0.0985054"/></linearGradient><linearGradient id="paint1_linear" x1="0" y1="40" x2="50" y2="40" gradientUnits="userSpaceOnUse"><stop stop-color="#0D87FF" stop-opacity="0.5"/><stop offset="1" stop-color="#0D87FF" stop-opacity="0.0985054"/></linearGradient></defs><path fill-rule="evenodd" clip-rule="evenodd" d="M10.7986 18.8297C14.9992 16.7127 23.555 19.2371 23.4498 28.9444C23.3794 35.429 19.0588 40 12.1914 40C4.15911 40 0.700821 32.5904 0.120491 27.6507C-1.26917 15.822 9.74615 4.02306 13.3774 0.487932C14.0221 -0.139642 15.0292 -0.157645 15.7291 0.40974L19.8214 3.7272C20.6914 4.43248 20.7267 5.73904 19.9233 6.51703C17.3747 8.98489 12.4259 14.1898 10.7986 18.8297Z" fill="url(#paint0_linear)"/><path fill-rule="evenodd" clip-rule="evenodd" d="M37.3478 18.8297C41.5485 16.7127 50.1043 19.2371 49.999 28.9444C49.9287 35.429 45.6081 40 38.7406 40C30.7084 40 27.2501 32.5904 26.6698 27.6507C25.2801 15.822 36.2954 4.02306 39.9267 0.487932C40.5714 -0.139642 41.5785 -0.157645 42.2784 0.40974L46.3707 3.7272C47.2407 4.43248 47.276 5.73904 46.4726 6.51703C43.924 8.98489 38.9752 14.1898 37.3478 18.8297Z" fill="url(#paint1_linear)"/></svg><g transform="translate(48, 32)"><g transform="translate(0, 0)"><text x="0" y="26" fill="#283544" font-size="24" font-variant="" font-family="Roboto,sans-serif" font-weight="500" xml:space="preserve">Good is the enemy </text></g><g transform="translate(0, 32)"><text x="0" y="26" fill="#283544" font-size="24" font-variant="" font-family="Roboto,sans-serif" font-weight="500" xml:space="preserve">of great</text></g></g></g><g transform="translate(460, 950)"><rect x="0" y="0" width="272" height="113" fill="#FFFFFF" opacity="1" rx="0"/><svg xmlns="http://www.w3.org/2000/svg" width="50" height="40" viewBox="0 0 50 40" x="16" y="16"><defs><linearGradient id="paint0_linear" x1="0" y1="40" x2="50" y2="40" gradientUnits="userSpaceOnUse"><stop stop-color="#0D87FF" stop-opacity="0.5"/><stop offset="1" stop-color="#0D87FF" stop-opacity="0.0985054"/></linearGradient><linearGradient id="paint1_linear" x1="0" y1="40" x2="50" y2="40" gradientUnits="userSpaceOnUse"><stop stop-color="#0D87FF" stop-opacity="0.5"/><stop offset="1" stop-color="#0D87FF" stop-opacity="0.0985054"/></linearGradient></defs><path fill-rule="evenodd" clip-rule="evenodd" d="M10.7986 18.8297C14.9992 16.7127 23.555 19.2371 23.4498 28.9444C23.3794 35.429 19.0588 40 12.1914 40C4.15911 40 0.700821 32.5904 0.120491 27.6507C-1.26917 15.822 9.74615 4.02306 13.3774 0.487932C14.0221 -0.139642 15.0292 -0.157645 15.7291 0.40974L19.8214 3.7272C20.6914 4.43248 20.7267 5.73904 19.9233 6.51703C17.3747 8.98489 12.4259 14.1898 10.7986 18.8297Z" fill="url(#paint0_linear)"/><path fill-rule="evenodd" clip-rule="evenodd" d="M37.3478 18.8297C41.5485 16.7127 50.1043 19.2371 49.999 28.9444C49.9287 35.429 45.6081 40 38.7406 40C30.7084 40 27.2501 32.5904 26.6698 27.6507C25.2801 15.822 36.2954 4.02306 39.9267 0.487932C40.5714 -0.139642 41.5785 -0.157645 42.2784 0.40974L46.3707 3.7272C47.2407 4.43248 47.276 5.73904 46.4726 6.51703C43.924 8.98489 38.9752 14.1898 37.3478 18.8297Z" fill="url(#paint1_linear)"/></svg><g transform="translate(48, 32)"><g transform="translate(0, 0)"><text x="0" y="26" fill="#283544" font-size="24" font-variant="" font-family="Roboto,sans-serif" font-weight="500" xml:space="preserve">Good is the enemy </text></g><g transform="translate(0, 32)"><text x="0" y="26" fill="#283544" font-size="24" font-variant="" font-family="Roboto,sans-serif" font-weight="500" xml:space="preserve">of great</text></g></g></g><g transform="translate(736, 950)"><rect x="0" y="0" width="272" height="113" fill="#FFFFFF" opacity="1" rx="0"/><svg xmlns="http://www.w3.org/2000/svg" width="50" height="40" viewBox="0 0 50 40" x="16" y="16"><defs><linearGradient id="paint0_linear" x1="0" y1="40" x2="50" y2="40" gradientUnits="userSpaceOnUse"><stop stop-color="#0D87FF" stop-opacity="0.5"/><stop offset="1" stop-color="#0D87FF" stop-opacity="0.0985054"/></linearGradient><linearGradient id="paint1_linear" x1="0" y1="40" x2="50" y2="40" gradientUnits="userSpaceOnUse"><stop stop-color="#0D87FF" stop-opacity="0.5"/><stop offset="1" stop-color="#0D87FF" stop-opacity="0.0985054"/></linearGradient></defs><path fill-rule="evenodd" clip-rule="evenodd" d="M10.7986 18.8297C14.9992 16.7127 23.555 19.2371 23.4498 28.9444C23.3794 35.429 19.0588 40 12.1914 40C4.15911 40 0.700821 32.5904 0.120491 27.6507C-1.26917 15.822 9.74615 4.02306 13.3774 0.487932C14.0221 -0.139642 15.0292 -0.157645 15.7291 0.40974L19.8214 3.7272C20.6914 4.43248 20.7267 5.73904 19.9233 6.51703C17.3747 8.98489 12.4259 14.1898 10.7986 18.8297Z" fill="url(#paint0_linear)"/><path fill-rule="evenodd" clip-rule="evenodd" d="M37.3478 18.8297C41.5485 16.7127 50.1043 19.2371 49.999 28.9444C49.9287 35.429 45.6081 40 38.7406 40C30.7084 40 27.2501 32.5904 26.6698 27.6507C25.2801 15.822 36.2954 4.02306 39.9267 0.487932C40.5714 -0.139642 41.5785 -0.157645 42.2784 0.40974L46.3707 3.7272C47.2407 4.43248 47.276 5.73904 46.4726 6.51703C43.924 8.98489 38.9752 14.1898 37.3478 18.8297Z" fill="url(#paint1_linear)"/></svg><g transform="translate(48, 32)"><g transform="translate(0, 0)"><text x="0" y="26" fill="#283544" font-size="24" font-variant="" font-family="Roboto,sans-serif" font-weight="500" xml:space="preserve">Good is the enemy </text></g><g transform="translate(0, 32)"><text x="0" y="26" fill="#283544" font-size="24" font-variant="" font-family="Roboto,sans-serif" font-weight="500" xml:space="preserve">of great</text></g></g></g><g transform="translate(1012, 950)"><rect x="0" y="0" width="272" height="113" fill="#FFFFFF" opacity="1" rx="0"/><svg xmlns="http://www.w3.org/2000/svg" width="50" height="40" viewBox="0 0 50 40" x="16" y="16"><defs><linearGradient id="paint0_linear" x1="0" y1="40" x2="50" y2="40" gradientUnits="userSpaceOnUse"><stop stop-color="#0D87FF" stop-opacity="0.5"/><stop offset="1" stop-color="#0D87FF" stop-opacity="0.0985054"/></linearGradient><linearGradient id="paint1_linear" x1="0" y1="40" x2="50" y2="40" gradientUnits="userSpaceOnUse"><stop stop-color="#0D87FF" stop-opacity="0.5"/><stop offset="1" stop-color="#0D87FF" stop-opacity="0.0985054"/></linearGradient></defs><path fill-rule="evenodd" clip-rule="evenodd" d="M10.7986 18.8297C14.9992 16.7127 23.555 19.2371 23.4498 28.9444C23.3794 35.429 19.0588 40 12.1914 40C4.15911 40 0.700821 32.5904 0.120491 27.6507C-1.26917 15.822 9.74615 4.02306 13.3774 0.487932C14.0221 -0.139642 15.0292 -0.157645 15.7291 0.40974L19.8214 3.7272C20.6914 4.43248 20.7267 5.73904 19.9233 6.51703C17.3747 8.98489 12.4259 14.1898 10.7986 18.8297Z" fill="url(#paint0_linear)"/><path fill-rule="evenodd" clip-rule="evenodd" d="M37.3478 18.8297C41.5485 16.7127 50.1043 19.2371 49.999 28.9444C49.9287 35.429 45.6081 40 38.7406 40C30.7084 40 27.2501 32.5904 26.6698 27.6507C25.2801 15.822 36.2954 4.02306 39.9267 0.487932C40.5714 -0.139642 41.5785 -0.157645 42.2784 0.40974L46.3707 3.7272C47.2407 4.43248 47.276 5.73904 46.4726 6.51703C43.924 8.98489 38.9752 14.1898 37.3478 18.8297Z" fill="url(#paint1_linear)"/></svg><g transform="translate(48, 32)"><g transform="translate(0, 0)"><text x="0" y="26" fill="#283544" font-size="24" font-variant="" font-family="Roboto,sans-serif" font-weight="500" xml:space="preserve">Good is the enemy </text></g><g transform="translate(0, 32)"><text x="0" y="26" fill="#283544" font-size="24" font-variant="" font-family="Roboto,sans-serif" font-weight="500" xml:space="preserve">of great</text></g></g></g><g transform="translate(1288, 950)"><rect x="0" y="0" width="416" height="113" fill="#FFFFFF" opacity="1" rx="0"/><svg xmlns="http://www.w3.org/2000/svg" width="50" height="40" viewBox="0 0 50 40" x="16" y="16"><defs><linearGradient id="paint0_linear" x1="0" y1="40" x2="50" y2="40" gradientUnits="userSpaceOnUse"><stop stop-color="#0D87FF" stop-opacity="0.5"/><stop offset="1" stop-color="#0D87FF" stop-opacity="0.0985054"/></linearGradient><linearGradient id="paint1_linear" x1="0" y1="40" x2="50" y2="40" gradientUnits="userSpaceOnUse"><stop stop-color="#0D87FF" stop-opacity="0.5"/><stop offset="1" stop-color="#0D87FF" stop-opacity="0.0985054"/></linearGradient></defs><path fill-rule="evenodd" clip-rule="evenodd" d="M10.7986 18.8297C14.9992 16.7127 23.555 19.2371 23.4498 28.9444C23.3794 35.429 19.0588 40 12.1914 40C4.15911 40 0.700821 32.5904 0.120491 27.6507C-1.26917 15.822 9.74615 4.02306 13.3774 0.487932C14.0221 -0.139642 15.0292 -0.157645 15.7291 0.40974L19.8214 3.7272C20.6914 4.43248 20.7267 5.73904 19.9233 6.51703C17.3747 8.98489 12.4259 14.1898 10.7986 18.8297Z" fill="url(#paint0_linear)"/><path fill-rule="evenodd" clip-rule="evenodd" d="M37.3478 18.8297C41.5485 16.7127 50.1043 19.2371 49.999 28.9444C49.9287 35.429 45.6081 40 38.7406 40C30.7084 40 27.2501 32.5904 26.6698 27.6507C25.2801 15.822 36.2954 4.02306 39.9267 0.487932C40.5714 -0.139642 41.5785 -0.157645 42.2784 0.40974L46.3707 3.7272C47.2407 4.43248 47.276 5.73904 46.4726 6.51703C43.924 8.98489 38.9752 14.1898 37.3478 18.8297Z" fill="url(#paint1_linear)"/></svg><g transform="translate(48, 32)"><g transform="translate(0, 0)"><text x="0" y="26" fill="#283544" font-size="24" font-variant="" font-family="Roboto,sans-serif" font-weight="500" xml:space="preserve">Good is the enemy of great</text></g></g></g><g transform="translate(184, 33)"><rect x="0" y="0" width="272" height="33" fill="#DEE7EC" opacity="1" rx="0"/><g transform=""><rect x="0" y="0" width="272" height="33" fill="#000000" opacity="0"/><g><g transform="translate(16, 5.833335999999999)"><g transform="translate(0, 0)"><text x="70.421875" y="17.333328" fill="#52565F" font-size="16" font-variant="" font-family="Roboto,sans-serif">Conocimiento</text></g></g></g></g></g><g transform="translate(460, 33)"><rect x="0" y="0" width="272" height="33" fill="#DEE7EC" opacity="1" rx="0"/><g transform=""><rect x="0" y="0" width="272" height="33" fill="#000000" opacity="0"/><g><g transform="translate(16, 5.833335999999999)"><g transform="translate(0, 0)"><text x="68.9921875" y="17.333328" fill="#52565F" font-size="16" font-variant="" font-family="Roboto,sans-serif">Consideraci贸n</text></g></g></g></g></g><g transform="translate(736, 33)"><rect x="0" y="0" width="272" height="33" fill="#DEE7EC" opacity="1" rx="0"/><g transform=""><rect x="0" y="0" width="272" height="33" fill="#000000" opacity="0"/><g><g transform="translate(16, 5.833335999999999)"><g transform="translate(0, 0)"><text x="78.19921875" y="17.333328" fill="#52565F" font-size="16" font-variant="" font-family="Roboto,sans-serif">Adquisici贸n</text></g></g></g></g></g><g transform="translate(1012, 33)"><rect x="0" y="0" width="272" height="33" fill="#DEE7EC" opacity="1" rx="0"/><g transform=""><rect x="0" y="0" width="272" height="33" fill="#000000" opacity="0"/><g><g transform="translate(16, 5.833335999999999)"><g transform="translate(0, 0)"><text x="106.125" y="17.333328" fill="#52565F" font-size="16" font-variant="" font-family="Roboto,sans-serif">Uso</text></g></g></g></g></g><g transform="translate(1288, 33)"><rect x="0" y="0" width="416" height="33" fill="#DEE7EC" opacity="1" rx="0"/><g transform=""><rect x="0" y="0" width="416" height="33" fill="#000000" opacity="0"/><g><g transform="translate(16, 5.833335999999999)"><g transform="translate(0, 0)"><text x="134.453125" y="17.333328" fill="#52565F" font-size="16" font-variant="" font-family="Roboto,sans-serif">Recomendaci贸n</text></g></g></g></g></g><g transform="translate(0, 70)"><rect x="0" y="0" width="180" height="210" fill="#DEE7EC" opacity="1" rx="0"/><g transform=""><rect x="0" y="0" width="180" height="210" fill="#000000" opacity="0"/><g><g transform="translate(16, 94.333336)"><g transform="translate(0, 0)"><text x="17.23046875" y="17.333328" fill="#52565F" font-size="16" font-variant="" font-family="Roboto,sans-serif">Experience Map</text></g></g></g></g></g><g transform="translate(0, 284)"><rect x="0" y="0" width="180" height="448" fill="#DEE7EC" opacity="1" rx="0"/><g transform=""><rect x="0" y="0" width="180" height="448" fill="#000000" opacity="0"/><g><g transform="translate(16, 202.666672)"><g transform="translate(0, 0)"><text x="19.7734375" y="17.333328" fill="#52565F" font-size="16" font-variant="" font-family="Roboto,sans-serif">Actividades de </text></g><g transform="translate(0, 21.333328)"><text x="46.71484375" y="17.333328" fill="#52565F" font-size="16" font-variant="" font-family="Roboto,sans-serif">Usuario</text></g></g></g></g></g><g transform="translate(0, 736)"><rect x="0" y="0" width="180" height="210" fill="#DEE7EC" opacity="1" rx="0"/><g transform=""><rect x="0" y="0" width="180" height="210" fill="#000000" opacity="0"/><g><g transform="translate(16, 94.333336)"><g transform="translate(0, 0)"><text x="45.37109375" y="17.333328" fill="#52565F" font-size="16" font-variant="" font-family="Roboto,sans-serif">Canales</text></g></g></g></g></g><g transform="translate(0, 950)"><rect x="0" y="0" width="180" height="113" fill="#DEE7EC" opacity="1" rx="0"/><g transform=""><rect x="0" y="0" width="180" height="113" fill="#000000" opacity="0"/><g><g transform="translate(16, 45.833336)"><g transform="translate(0, 0)"><text x="48.55078125" y="17.333328" fill="#52565F" font-size="16" font-variant="" font-family="Roboto,sans-serif">Quotes</text></g></g></g></g></g><g transform="translate(184, 0)"><rect x="0" y="0" width="1100" height="33" fill="#8C9BAA" opacity="1" rx="0"/><g transform=""><rect x="0" y="0" width="1100" height="33" fill="#000000" opacity="0"/><g><g transform="translate(16, 5.833335999999999)"><g transform="translate(0, 0)"><text x="501.0625" y="17.333328" fill="#FFFFFF" font-size="16" font-variant="" font-family="Roboto,sans-serif">Group #1</text></g></g></g></g></g><g transform="translate(1288, 0)"><rect x="0" y="0" width="416" height="33" fill="#8C9BAA" opacity="1" rx="0"/><g transform=""><rect x="0" y="0" width="416" height="33" fill="#000000" opacity="0"/><g><g transform="translate(16, 5.833335999999999)"><g transform="translate(0, 0)"><text x="159.0625" y="17.333328" fill="#FFFFFF" font-size="16" font-variant="" font-family="Roboto,sans-serif">Group #2</text></g></g></g></g></g></g></g></g></svg></g></svg>